<svg width="44" height="38" viewBox="0 0 44 38" fill="none" xmlns="http://www.w3.org/2000/svg">
<path fill-rule="evenodd" clip-rule="evenodd" d="M43.9998 14.4527C43.9998 21.9193 38.1617 27.9721 30.9599 27.9721C23.7581 27.9721 17.9199 21.9193 17.9199 14.4527C17.9199 6.98618 23.7581 0.93335 30.9599 0.93335C38.1617 0.93335 43.9998 6.98618 43.9998 14.4527Z" fill="#FFF696"/>
<path fill-rule="evenodd" clip-rule="evenodd" d="M16.119 10.8892C19.7489 10.8892 22.8597 12.9443 24.5135 15.9062C25.4445 15.2089 26.6337 14.7576 27.9387 14.7576C30.9045 14.7576 33.3116 16.924 33.3116 19.5932C33.3116 20.1926 33.1977 20.7557 32.9759 21.2856C36.3491 22.6416 38.6846 25.7131 38.6846 29.2644C38.6846 34.0864 34.3712 37.9684 29.0132 37.9684H9.67137C4.31343 37.9684 0 34.0864 0 29.2644C0 25.4443 2.72517 22.2218 6.51419 21.0439C6.51419 20.8797 6.44755 20.7277 6.44755 20.5605C6.44755 15.222 10.7804 10.8892 16.119 10.8892Z" fill="#B0EFFF"/>
</svg>
