<svg width="44" height="45" viewBox="0 0 44 45" fill="none" xmlns="http://www.w3.org/2000/svg">
<path fill-rule="evenodd" clip-rule="evenodd" d="M18.3338 0C22.4625 0 26.0007 2.33752 27.8817 5.70637C28.9407 4.91326 30.2932 4.40001 31.7775 4.40001C35.1509 4.40001 37.8888 6.86401 37.8888 9.90001C37.8888 10.5818 37.7592 11.2222 37.5069 11.825C41.3436 13.3672 44 16.8608 44 20.9C44 26.3846 39.0939 30.8 32.9998 30.8H11.0002C4.90611 30.8 0 26.3846 0 20.9C0 16.555 3.09962 12.8898 7.40927 11.55C7.40927 11.3632 7.33346 11.1904 7.33346 11.0002C7.33346 4.92815 12.2616 0 18.3338 0Z" fill="#808080"/>
<path fill-rule="evenodd" clip-rule="evenodd" d="M13.2112 34.1718L13.2377 34.2318L13.303 34.2247L13.2642 34.2777L13.303 34.3307L13.2377 34.3236L13.2112 34.3837L13.1847 34.3236L13.1194 34.3307L13.1582 34.2777L13.1194 34.2247L13.1847 34.2318L13.2112 34.1718Z" fill="#B0EFFF" stroke="#B0EFFF" stroke-width="0.8"/>
<path fill-rule="evenodd" clip-rule="evenodd" d="M30.6516 34.1718L30.6781 34.2318L30.7434 34.2247L30.7046 34.2777L30.7434 34.3307L30.6781 34.3236L30.6516 34.3837L30.6251 34.3236L30.5598 34.3307L30.5986 34.2777L30.5598 34.2247L30.6251 34.2318L30.6516 34.1718Z" fill="#B0EFFF" stroke="#B0EFFF" stroke-width="0.8"/>
<path fill-rule="evenodd" clip-rule="evenodd" d="M11.7577 38.532L11.7889 38.5951L11.8586 38.6053L11.8082 38.6544L11.8201 38.7238L11.7578 38.691L11.6955 38.7238L11.7074 38.6544L11.657 38.6053L11.7266 38.5951L11.7577 38.532Z" fill="#B0EFFF" stroke="#B0EFFF" stroke-width="0.8"/>
<path fill-rule="evenodd" clip-rule="evenodd" d="M10.3042 42.8921L10.3307 42.9522L10.396 42.9451L10.3572 42.9981L10.396 43.0511L10.3307 43.044L10.3042 43.1041L10.2777 43.044L10.2124 43.0511L10.2512 42.9981L10.2124 42.9451L10.2777 42.9522L10.3042 42.8921Z" fill="#B0EFFF" stroke="#B0EFFF" stroke-width="0.8"/>
<path fill-rule="evenodd" clip-rule="evenodd" d="M29.1982 38.532L29.2293 38.5951L29.299 38.6053L29.2486 38.6544L29.2605 38.7238L29.1982 38.691L29.1359 38.7238L29.1478 38.6544L29.0974 38.6053L29.1671 38.5951L29.1982 38.532Z" fill="#B0EFFF" stroke="#B0EFFF" stroke-width="0.8"/>
<path fill-rule="evenodd" clip-rule="evenodd" d="M20.478 38.532L20.5045 38.5921L20.5698 38.585L20.531 38.638L20.5698 38.691L20.5045 38.6838L20.478 38.7439L20.4515 38.6838L20.3862 38.691L20.425 38.638L20.3862 38.585L20.4515 38.5921L20.478 38.532Z" fill="#B0EFFF" stroke="#B0EFFF" stroke-width="0.8"/>
<path fill-rule="evenodd" clip-rule="evenodd" d="M21.9313 34.1718L21.9625 34.2349L22.0322 34.245L21.9817 34.2942L21.9937 34.3636L21.9314 34.3308L21.8691 34.3636L21.881 34.2942L21.8306 34.245L21.9002 34.2349L21.9313 34.1718Z" fill="#B0EFFF" stroke="#B0EFFF" stroke-width="0.8"/>
<path fill-rule="evenodd" clip-rule="evenodd" d="M19.0248 42.8921L19.056 42.9552L19.1257 42.9654L19.0753 43.0145L19.0872 43.0839L19.0249 43.0511L18.9626 43.0839L18.9745 43.0145L18.9241 42.9654L18.9937 42.9552L19.0248 42.8921Z" fill="#B0EFFF" stroke="#B0EFFF" stroke-width="0.8"/>
<path fill-rule="evenodd" clip-rule="evenodd" d="M27.7451 42.8921L27.7716 42.9522L27.8369 42.9451L27.7981 42.9981L27.8369 43.0511L27.7716 43.044L27.7451 43.1041L27.7186 43.044L27.6533 43.0511L27.6921 42.9981L27.6533 42.9451L27.7186 42.9522L27.7451 42.8921Z" fill="#B0EFFF" stroke="#B0EFFF" stroke-width="0.8"/>
<path fill-rule="evenodd" clip-rule="evenodd" d="M17.004 36.3519L17.0414 36.4205L17.11 36.4579L17.0414 36.4954L17.004 36.5639L16.9665 36.4954L16.8979 36.4579L16.9665 36.4205L17.004 36.3519Z" fill="#B0EFFF" stroke="#E6E6E6" stroke-width="0.8"/>
<path fill-rule="evenodd" clip-rule="evenodd" d="M25.826 36.6031L25.8635 36.6717L25.932 36.7092L25.8635 36.7466L25.826 36.8152L25.7885 36.7466L25.72 36.7092L25.7885 36.6717L25.826 36.6031Z" fill="#B0EFFF" stroke="#E6E6E6" stroke-width="0.8"/>
<path fill-rule="evenodd" clip-rule="evenodd" d="M15.2254 41.2675L15.2629 41.336L15.3314 41.3735L15.2629 41.4109L15.2254 41.4795L15.1879 41.4109L15.1194 41.3735L15.1879 41.336L15.2254 41.2675Z" fill="#B0EFFF" stroke="#E6E6E6" stroke-width="0.8"/>
<path fill-rule="evenodd" clip-rule="evenodd" d="M23.9178 41.2675L23.9553 41.336L24.0238 41.3735L23.9553 41.4109L23.9178 41.4795L23.8803 41.4109L23.8118 41.3735L23.8803 41.336L23.9178 41.2675Z" fill="#B0EFFF" stroke="#E6E6E6" stroke-width="0.8"/>
</svg>
