<svg width="44" height="46" viewBox="0 0 44 46" fill="none" xmlns="http://www.w3.org/2000/svg">
<path fill-rule="evenodd" clip-rule="evenodd" d="M30.7052 29.696C30.7052 38.0179 24.1981 44.7642 16.1713 44.7642C8.14448 44.7642 1.63745 38.0179 1.63745 29.696C1.63745 21.3741 8.14448 14.6278 16.1713 14.6278C24.1981 14.6278 30.7052 21.3741 30.7052 29.696Z" fill="#FFF696"/>
<path fill-rule="evenodd" clip-rule="evenodd" d="M18.3338 0.93335C22.4625 0.93335 26.0007 3.27087 27.8817 6.63972C28.9407 5.84661 30.2932 5.33336 31.7775 5.33336C35.1509 5.33336 37.8888 7.79736 37.8888 10.8334C37.8888 11.5152 37.7592 12.1555 37.5069 12.7583C41.3436 14.3006 44 17.7942 44 21.8334C44 27.318 39.0939 31.7333 32.9998 31.7333H11.0002C4.90611 31.7333 0 27.318 0 21.8334C0 17.4884 3.09962 13.8232 7.40927 12.4834C7.40927 12.2966 7.33346 12.1237 7.33346 11.9336C7.33346 5.8615 12.2616 0.93335 18.3338 0.93335Z" fill="#808080"/>
<path fill-rule="evenodd" clip-rule="evenodd" d="M13.2112 35.1051L13.2377 35.1652L13.303 35.1581L13.2642 35.2111L13.303 35.2641L13.2377 35.257L13.2112 35.3171L13.1847 35.257L13.1194 35.2641L13.1582 35.2111L13.1194 35.1581L13.1847 35.1652L13.2112 35.1051Z" fill="#B0EFFF" stroke="#B0EFFF" stroke-width="0.8"/>
<path fill-rule="evenodd" clip-rule="evenodd" d="M30.6516 35.1051L30.6781 35.1652L30.7434 35.1581L30.7046 35.2111L30.7434 35.2641L30.6781 35.257L30.6516 35.3171L30.6251 35.257L30.5598 35.2641L30.5986 35.2111L30.5598 35.1581L30.6251 35.1652L30.6516 35.1051Z" fill="#B0EFFF" stroke="#B0EFFF" stroke-width="0.8"/>
<path fill-rule="evenodd" clip-rule="evenodd" d="M11.7577 39.4653L11.7889 39.5285L11.8586 39.5386L11.8082 39.5878L11.8201 39.6571L11.7578 39.6244L11.6955 39.6571L11.7074 39.5878L11.657 39.5386L11.7266 39.5285L11.7577 39.4653Z" fill="#B0EFFF" stroke="#B0EFFF" stroke-width="0.8"/>
<path fill-rule="evenodd" clip-rule="evenodd" d="M10.3042 43.8254L10.3307 43.8855L10.396 43.8784L10.3572 43.9314L10.396 43.9844L10.3307 43.9773L10.3042 44.0374L10.2777 43.9773L10.2124 43.9844L10.2512 43.9314L10.2124 43.8784L10.2777 43.8855L10.3042 43.8254Z" fill="#B0EFFF" stroke="#B0EFFF" stroke-width="0.8"/>
<path fill-rule="evenodd" clip-rule="evenodd" d="M29.1982 39.4653L29.2293 39.5285L29.299 39.5386L29.2486 39.5878L29.2605 39.6571L29.1982 39.6244L29.1359 39.6571L29.1478 39.5878L29.0974 39.5386L29.1671 39.5285L29.1982 39.4653Z" fill="#B0EFFF" stroke="#B0EFFF" stroke-width="0.8"/>
<path fill-rule="evenodd" clip-rule="evenodd" d="M20.478 39.4653L20.5045 39.5254L20.5698 39.5183L20.531 39.5713L20.5698 39.6243L20.5045 39.6172L20.478 39.6773L20.4515 39.6172L20.3862 39.6243L20.425 39.5713L20.3862 39.5183L20.4515 39.5254L20.478 39.4653Z" fill="#B0EFFF" stroke="#B0EFFF" stroke-width="0.8"/>
<path fill-rule="evenodd" clip-rule="evenodd" d="M21.9313 35.1051L21.9625 35.1682L22.0322 35.1784L21.9817 35.2275L21.9937 35.2969L21.9314 35.2642L21.8691 35.2969L21.881 35.2275L21.8306 35.1784L21.9002 35.1682L21.9313 35.1051Z" fill="#B0EFFF" stroke="#B0EFFF" stroke-width="0.8"/>
<path fill-rule="evenodd" clip-rule="evenodd" d="M19.0248 43.8254L19.056 43.8886L19.1257 43.8987L19.0753 43.9479L19.0872 44.0173L19.0249 43.9845L18.9626 44.0173L18.9745 43.9479L18.9241 43.8987L18.9937 43.8886L19.0248 43.8254Z" fill="#B0EFFF" stroke="#B0EFFF" stroke-width="0.8"/>
<path fill-rule="evenodd" clip-rule="evenodd" d="M27.7451 43.8254L27.7716 43.8855L27.8369 43.8784L27.7981 43.9314L27.8369 43.9844L27.7716 43.9773L27.7451 44.0374L27.7186 43.9773L27.6533 43.9844L27.6921 43.9314L27.6533 43.8784L27.7186 43.8855L27.7451 43.8254Z" fill="#B0EFFF" stroke="#B0EFFF" stroke-width="0.8"/>
<path fill-rule="evenodd" clip-rule="evenodd" d="M17.004 37.2853L17.0414 37.3538L17.11 37.3913L17.0414 37.4288L17.004 37.4973L16.9665 37.4288L16.8979 37.3913L16.9665 37.3538L17.004 37.2853Z" fill="#B0EFFF" stroke="#E6E6E6" stroke-width="0.8"/>
<path fill-rule="evenodd" clip-rule="evenodd" d="M25.826 37.5365L25.8635 37.605L25.932 37.6425L25.8635 37.68L25.826 37.7485L25.7885 37.68L25.72 37.6425L25.7885 37.605L25.826 37.5365Z" fill="#B0EFFF" stroke="#E6E6E6" stroke-width="0.8"/>
<path fill-rule="evenodd" clip-rule="evenodd" d="M15.2254 42.2008L15.2629 42.2693L15.3314 42.3068L15.2629 42.3443L15.2254 42.4128L15.1879 42.3443L15.1194 42.3068L15.1879 42.2693L15.2254 42.2008Z" fill="#B0EFFF" stroke="#E6E6E6" stroke-width="0.8"/>
<path fill-rule="evenodd" clip-rule="evenodd" d="M23.9178 42.2008L23.9553 42.2693L24.0238 42.3068L23.9553 42.3443L23.9178 42.4128L23.8803 42.3443L23.8118 42.3068L23.8803 42.2693L23.9178 42.2008Z" fill="#B0EFFF" stroke="#E6E6E6" stroke-width="0.8"/>
</svg>
