<svg width="44" height="45" viewBox="0 0 44 45" fill="none" xmlns="http://www.w3.org/2000/svg">
<path fill-rule="evenodd" clip-rule="evenodd" d="M30.7052 29.077C30.7052 37.3989 24.1981 44.1452 16.1713 44.1452C8.14448 44.1452 1.63745 37.3989 1.63745 29.077C1.63745 20.755 8.14448 14.0088 16.1713 14.0088C24.1981 14.0088 30.7052 20.755 30.7052 29.077Z" fill="#FFF696"/>
<path fill-rule="evenodd" clip-rule="evenodd" d="M18.3338 0.314331C22.4625 0.314331 26.0007 2.65185 27.8817 6.0207C28.9407 5.22759 30.2932 4.71434 31.7775 4.71434C35.1509 4.71434 37.8888 7.17834 37.8888 10.2143C37.8888 10.8962 37.7592 11.5365 37.5069 12.1393C41.3436 13.6816 44 17.1751 44 21.2144C44 26.699 39.0939 31.1143 32.9998 31.1143H11.0002C4.90611 31.1143 0 26.699 0 21.2144C0 16.8693 3.09962 13.2042 7.40927 11.8644C7.40927 11.6776 7.33346 11.5047 7.33346 11.3145C7.33346 5.24248 12.2616 0.314331 18.3338 0.314331Z" fill="#B0EFFF"/>
<path fill-rule="evenodd" clip-rule="evenodd" d="M13.2112 34.4861L13.2377 34.5462L13.303 34.5391L13.2642 34.5921L13.303 34.6451L13.2377 34.6379L13.2112 34.698L13.1847 34.6379L13.1194 34.6451L13.1582 34.5921L13.1194 34.5391L13.1847 34.5462L13.2112 34.4861Z" fill="#B0EFFF" stroke="#B0EFFF" stroke-width="0.8"/>
<path fill-rule="evenodd" clip-rule="evenodd" d="M30.6516 34.4861L30.6781 34.5462L30.7434 34.5391L30.7046 34.5921L30.7434 34.6451L30.6781 34.6379L30.6516 34.698L30.6251 34.6379L30.5598 34.6451L30.5986 34.5921L30.5598 34.5391L30.6251 34.5462L30.6516 34.4861Z" fill="#B0EFFF" stroke="#B0EFFF" stroke-width="0.8"/>
<path fill-rule="evenodd" clip-rule="evenodd" d="M11.7577 38.8463L11.7889 38.9094L11.8586 38.9196L11.8082 38.9687L11.8201 39.0381L11.7578 39.0054L11.6955 39.0381L11.7074 38.9687L11.657 38.9196L11.7266 38.9094L11.7577 38.8463Z" fill="#B0EFFF" stroke="#B0EFFF" stroke-width="0.8"/>
<path fill-rule="evenodd" clip-rule="evenodd" d="M10.3042 43.2064L10.3307 43.2665L10.396 43.2594L10.3572 43.3124L10.396 43.3654L10.3307 43.3583L10.3042 43.4184L10.2777 43.3583L10.2124 43.3654L10.2512 43.3124L10.2124 43.2594L10.2777 43.2665L10.3042 43.2064Z" fill="#B0EFFF" stroke="#B0EFFF" stroke-width="0.8"/>
<path fill-rule="evenodd" clip-rule="evenodd" d="M29.1982 38.8463L29.2293 38.9094L29.299 38.9196L29.2486 38.9687L29.2605 39.0381L29.1982 39.0054L29.1359 39.0381L29.1478 38.9687L29.0974 38.9196L29.1671 38.9094L29.1982 38.8463Z" fill="#B0EFFF" stroke="#B0EFFF" stroke-width="0.8"/>
<path fill-rule="evenodd" clip-rule="evenodd" d="M20.478 38.8463L20.5045 38.9064L20.5698 38.8993L20.531 38.9523L20.5698 39.0053L20.5045 38.9982L20.478 39.0583L20.4515 38.9982L20.3862 39.0053L20.425 38.9523L20.3862 38.8993L20.4515 38.9064L20.478 38.8463Z" fill="#B0EFFF" stroke="#B0EFFF" stroke-width="0.8"/>
<path fill-rule="evenodd" clip-rule="evenodd" d="M21.9313 34.4861L21.9625 34.5492L22.0322 34.5594L21.9817 34.6085L21.9937 34.6779L21.9314 34.6451L21.8691 34.6779L21.881 34.6085L21.8306 34.5594L21.9002 34.5492L21.9313 34.4861Z" fill="#B0EFFF" stroke="#B0EFFF" stroke-width="0.8"/>
<path fill-rule="evenodd" clip-rule="evenodd" d="M19.0248 43.2064L19.056 43.2695L19.1257 43.2797L19.0753 43.3289L19.0872 43.3982L19.0249 43.3655L18.9626 43.3982L18.9745 43.3289L18.9241 43.2797L18.9937 43.2695L19.0248 43.2064Z" fill="#B0EFFF" stroke="#B0EFFF" stroke-width="0.8"/>
<path fill-rule="evenodd" clip-rule="evenodd" d="M27.7451 43.2064L27.7716 43.2665L27.8369 43.2594L27.7981 43.3124L27.8369 43.3654L27.7716 43.3583L27.7451 43.4184L27.7186 43.3583L27.6533 43.3654L27.6921 43.3124L27.6533 43.2594L27.7186 43.2665L27.7451 43.2064Z" fill="#B0EFFF" stroke="#B0EFFF" stroke-width="0.8"/>
<path fill-rule="evenodd" clip-rule="evenodd" d="M17.004 36.6663L17.0414 36.7348L17.11 36.7723L17.0414 36.8098L17.004 36.8783L16.9665 36.8098L16.8979 36.7723L16.9665 36.7348L17.004 36.6663Z" fill="#B0EFFF" stroke="#E6E6E6" stroke-width="0.8"/>
<path fill-rule="evenodd" clip-rule="evenodd" d="M25.826 36.9175L25.8635 36.986L25.932 37.0235L25.8635 37.061L25.826 37.1295L25.7885 37.061L25.72 37.0235L25.7885 36.986L25.826 36.9175Z" fill="#B0EFFF" stroke="#E6E6E6" stroke-width="0.8"/>
<path fill-rule="evenodd" clip-rule="evenodd" d="M15.2254 41.5818L15.2629 41.6503L15.3314 41.6878L15.2629 41.7253L15.2254 41.7938L15.1879 41.7253L15.1194 41.6878L15.1879 41.6503L15.2254 41.5818Z" fill="#B0EFFF" stroke="#E6E6E6" stroke-width="0.8"/>
<path fill-rule="evenodd" clip-rule="evenodd" d="M23.9178 41.5818L23.9553 41.6503L24.0238 41.6878L23.9553 41.7253L23.9178 41.7938L23.8803 41.7253L23.8118 41.6878L23.8803 41.6503L23.9178 41.5818Z" fill="#B0EFFF" stroke="#E6E6E6" stroke-width="0.8"/>
</svg>
