<svg width="44" height="53" viewBox="0 0 44 53" fill="none" xmlns="http://www.w3.org/2000/svg">
<path fill-rule="evenodd" clip-rule="evenodd" d="M31.066 28.9509C31.066 37.0471 24.7354 43.6104 16.9263 43.6104C9.11717 43.6104 2.78662 37.0471 2.78662 28.9509C2.78662 20.8547 9.11717 14.2914 16.9263 14.2914C24.7354 14.2914 31.066 20.8547 31.066 28.9509Z" fill="#FFF696"/>
<path fill-rule="evenodd" clip-rule="evenodd" d="M24.9265 36.369L22.2832 40.9397L19.6399 45.5103L20.6579 40.3294L21.676 35.1486L23.3013 35.7588L24.9265 36.369Z" fill="#FFD42A"/>
<path d="M24.9569 36.3155L20.8923 33.9689L19.8657 35.7471L23.9302 38.0937L24.9569 36.3155Z" fill="#FFD42A"/>
<path d="M25.2958 30.4483L23.5176 29.4216L20.8776 33.9942L22.6558 35.0209L25.2958 30.4483Z" fill="#FFD42A"/>
<path fill-rule="evenodd" clip-rule="evenodd" d="M9.48708 35.338L6.84374 39.9087L4.2004 44.4793L5.21849 39.2984L6.23657 34.1176L7.86183 34.7278L9.48708 35.338Z" fill="#FFD42A"/>
<path d="M9.5174 35.2844L5.45288 32.9377L4.42622 34.716L8.49074 37.0626L9.5174 35.2844Z" fill="#FFD42A"/>
<path d="M9.85659 29.4172L8.07837 28.3905L5.43839 32.9631L7.21661 33.9897L9.85659 29.4172Z" fill="#FFD42A"/>
<path fill-rule="evenodd" clip-rule="evenodd" d="M19.0301 0.968384C23.0469 0.968384 26.4891 3.2425 28.3191 6.51998C29.3494 5.74838 30.6652 5.24906 32.1093 5.24906C35.3912 5.24906 38.0548 7.64623 38.0548 10.5999C38.0548 11.2632 37.9287 11.8862 37.6833 12.4727C41.4159 13.9731 44.0002 17.3719 44.0002 21.3016C44.0002 26.6374 39.2272 30.933 33.2983 30.933H11.8955C5.96665 30.933 1.1936 26.6374 1.1936 21.3016C1.1936 17.0744 4.20916 13.5086 8.40192 12.2052C8.40192 12.0234 8.32816 11.8552 8.32816 11.6702C8.32816 5.76287 13.1227 0.968384 19.0301 0.968384Z" fill="#B0EFFF"/>
<path fill-rule="evenodd" clip-rule="evenodd" d="M19.8372 32.3979L14.5505 41.5391L9.26384 50.6804L11.3 40.3187L13.3362 29.9569L16.5867 31.1774L19.8372 32.3979Z" fill="#FFD42A"/>
<path d="M19.8976 32.2903L11.7686 27.597L9.71524 31.1535L17.8443 35.8468L19.8976 32.2903Z" fill="#FFD42A"/>
<path d="M20.5755 20.556L17.019 18.5027L11.7391 27.6478L15.2955 29.7012L20.5755 20.556Z" fill="#FFD42A"/>
<path fill-rule="evenodd" clip-rule="evenodd" d="M18.3159 33.7869C18.3159 34.5749 17.6771 35.2138 16.889 35.2138C16.101 35.2138 15.4622 34.5749 15.4622 33.7869C15.4622 32.9988 16.101 32.36 16.889 32.36C17.6771 32.36 18.3159 32.9988 18.3159 33.7869Z" fill="#B0EFFF"/>
<path fill-rule="evenodd" clip-rule="evenodd" d="M26.8772 33.7869C26.8772 34.5749 26.2384 35.2138 25.4503 35.2138C24.6623 35.2138 24.0234 34.5749 24.0234 33.7869C24.0234 32.9988 24.6623 32.36 25.4503 32.36C26.2384 32.36 26.8772 32.9988 26.8772 33.7869Z" fill="#F2F2F2"/>
<path fill-rule="evenodd" clip-rule="evenodd" d="M35.4387 33.7869C35.4387 34.5749 34.7999 35.2138 34.0118 35.2138C33.2238 35.2138 32.585 34.5749 32.585 33.7869C32.585 32.9988 33.2238 32.36 34.0118 32.36C34.7999 32.36 35.4387 32.9988 35.4387 33.7869Z" fill="#B0EFFF"/>
<path fill-rule="evenodd" clip-rule="evenodd" d="M15.4619 39.4944C15.4619 40.2824 14.8231 40.9213 14.035 40.9213C13.247 40.9213 12.6082 40.2824 12.6082 39.4944C12.6082 38.7063 13.247 38.0675 14.035 38.0675C14.8231 38.0675 15.4619 38.7063 15.4619 39.4944Z" fill="#F2F2F2"/>
<path fill-rule="evenodd" clip-rule="evenodd" d="M24.0237 39.4944C24.0237 40.2824 23.3849 40.9213 22.5968 40.9213C21.8088 40.9213 21.1699 40.2824 21.1699 39.4944C21.1699 38.7063 21.8088 38.0675 22.5968 38.0675C23.3849 38.0675 24.0237 38.7063 24.0237 39.4944Z" fill="#B0EFFF"/>
<path fill-rule="evenodd" clip-rule="evenodd" d="M32.5847 39.4944C32.5847 40.2824 31.9459 40.9213 31.1578 40.9213C30.3698 40.9213 29.731 40.2824 29.731 39.4944C29.731 38.7063 30.3698 38.0675 31.1578 38.0675C31.9459 38.0675 32.5847 38.7063 32.5847 39.4944Z" fill="#F2F2F2"/>
<path fill-rule="evenodd" clip-rule="evenodd" d="M12.6084 45.202C12.6084 45.9901 11.9696 46.6289 11.1815 46.6289C10.3935 46.6289 9.75464 45.9901 9.75464 45.202C9.75464 44.414 10.3935 43.7751 11.1815 43.7751C11.9696 43.7751 12.6084 44.414 12.6084 45.202Z" fill="#B0EFFF"/>
<path fill-rule="evenodd" clip-rule="evenodd" d="M21.1697 45.202C21.1697 45.9901 20.5309 46.6289 19.7428 46.6289C18.9548 46.6289 18.3159 45.9901 18.3159 45.202C18.3159 44.414 18.9548 43.7751 19.7428 43.7751C20.5309 43.7751 21.1697 44.414 21.1697 45.202Z" fill="#F2F2F2"/>
<path fill-rule="evenodd" clip-rule="evenodd" d="M29.7312 45.202C29.7312 45.9901 29.0924 46.6289 28.3043 46.6289C27.5163 46.6289 26.8774 45.9901 26.8774 45.202C26.8774 44.414 27.5163 43.7751 28.3043 43.7751C29.0924 43.7751 29.7312 44.414 29.7312 45.202Z" fill="#B0EFFF"/>
</svg>
