<svg width="44" height="53" viewBox="0 0 44 53" fill="none" xmlns="http://www.w3.org/2000/svg">
<path fill-rule="evenodd" clip-rule="evenodd" d="M31.066 28.1383C31.066 36.2345 24.7354 42.7978 16.9263 42.7978C9.11717 42.7978 2.78662 36.2345 2.78662 28.1383C2.78662 20.042 9.11717 13.4788 16.9263 13.4788C24.7354 13.4788 31.066 20.042 31.066 28.1383Z" fill="#FFF696"/>
<path fill-rule="evenodd" clip-rule="evenodd" d="M24.9265 35.5564L22.2832 40.1271L19.6399 44.6977L20.6579 39.5168L21.676 34.3359L23.3013 34.9462L24.9265 35.5564Z" fill="#FFD42A"/>
<path d="M24.9569 35.5027L20.8923 33.156L19.8657 34.9342L23.9302 37.2809L24.9569 35.5027Z" fill="#FFD42A"/>
<path d="M25.2958 29.6355L23.5176 28.6089L20.8776 33.1815L22.6558 34.2081L25.2958 29.6355Z" fill="#FFD42A"/>
<path fill-rule="evenodd" clip-rule="evenodd" d="M9.48708 34.5254L6.84374 39.096L4.2004 43.6667L5.21849 38.4858L6.23657 33.3049L7.86183 33.9152L9.48708 34.5254Z" fill="#FFD42A"/>
<path d="M9.5174 34.4719L5.45288 32.1252L4.42622 33.9035L8.49074 36.2501L9.5174 34.4719Z" fill="#FFD42A"/>
<path d="M9.85659 28.6045L8.07837 27.5779L5.43839 32.1505L7.21661 33.1771L9.85659 28.6045Z" fill="#FFD42A"/>
<path fill-rule="evenodd" clip-rule="evenodd" d="M19.0301 0.155762C23.0469 0.155762 26.4891 2.42988 28.3191 5.70736C29.3494 4.93576 30.6652 4.43644 32.1093 4.43644C35.3912 4.43644 38.0548 6.83361 38.0548 9.78727C38.0548 10.4506 37.9287 11.0736 37.6833 11.66C41.4159 13.1604 44.0002 16.5593 44.0002 20.489C44.0002 25.8248 39.2272 30.1204 33.2983 30.1204H11.8955C5.96665 30.1204 1.1936 25.8248 1.1936 20.489C1.1936 16.2618 4.20916 12.696 8.40192 11.3925C8.40192 11.2108 8.32816 11.0426 8.32816 10.8576C8.32816 4.95025 13.1227 0.155762 19.0301 0.155762Z" fill="#808080"/>
<path fill-rule="evenodd" clip-rule="evenodd" d="M19.8372 31.5855L14.5505 40.7268L9.26384 49.8681L11.3 39.5063L13.3362 29.1445L16.5867 30.365L19.8372 31.5855Z" fill="#FFD42A"/>
<path d="M19.8976 31.4777L11.7686 26.7844L9.71524 30.3409L17.8443 35.0342L19.8976 31.4777Z" fill="#FFD42A"/>
<path d="M20.5755 19.7435L17.019 17.6902L11.7391 26.8353L15.2955 28.8887L20.5755 19.7435Z" fill="#FFD42A"/>
<path fill-rule="evenodd" clip-rule="evenodd" d="M18.3159 32.9743C18.3159 33.7623 17.6771 34.4011 16.889 34.4011C16.101 34.4011 15.4622 33.7623 15.4622 32.9743C15.4622 32.1862 16.101 31.5474 16.889 31.5474C17.6771 31.5474 18.3159 32.1862 18.3159 32.9743Z" fill="#B0EFFF"/>
<path fill-rule="evenodd" clip-rule="evenodd" d="M26.8772 32.9743C26.8772 33.7623 26.2384 34.4011 25.4503 34.4011C24.6623 34.4011 24.0234 33.7623 24.0234 32.9743C24.0234 32.1862 24.6623 31.5474 25.4503 31.5474C26.2384 31.5474 26.8772 32.1862 26.8772 32.9743Z" fill="#F2F2F2"/>
<path fill-rule="evenodd" clip-rule="evenodd" d="M35.4387 32.9743C35.4387 33.7623 34.7999 34.4011 34.0118 34.4011C33.2238 34.4011 32.585 33.7623 32.585 32.9743C32.585 32.1862 33.2238 31.5474 34.0118 31.5474C34.7999 31.5474 35.4387 32.1862 35.4387 32.9743Z" fill="#B0EFFF"/>
<path fill-rule="evenodd" clip-rule="evenodd" d="M15.4619 38.6818C15.4619 39.4698 14.8231 40.1087 14.035 40.1087C13.247 40.1087 12.6082 39.4698 12.6082 38.6818C12.6082 37.8937 13.247 37.2549 14.035 37.2549C14.8231 37.2549 15.4619 37.8937 15.4619 38.6818Z" fill="#F2F2F2"/>
<path fill-rule="evenodd" clip-rule="evenodd" d="M24.0237 38.6818C24.0237 39.4698 23.3849 40.1087 22.5968 40.1087C21.8088 40.1087 21.1699 39.4698 21.1699 38.6818C21.1699 37.8937 21.8088 37.2549 22.5968 37.2549C23.3849 37.2549 24.0237 37.8937 24.0237 38.6818Z" fill="#B0EFFF"/>
<path fill-rule="evenodd" clip-rule="evenodd" d="M32.5847 38.6818C32.5847 39.4698 31.9459 40.1087 31.1578 40.1087C30.3698 40.1087 29.731 39.4698 29.731 38.6818C29.731 37.8937 30.3698 37.2549 31.1578 37.2549C31.9459 37.2549 32.5847 37.8937 32.5847 38.6818Z" fill="#F2F2F2"/>
<path fill-rule="evenodd" clip-rule="evenodd" d="M12.6084 44.3894C12.6084 45.1775 11.9696 45.8163 11.1815 45.8163C10.3935 45.8163 9.75464 45.1775 9.75464 44.3894C9.75464 43.6014 10.3935 42.9625 11.1815 42.9625C11.9696 42.9625 12.6084 43.6014 12.6084 44.3894Z" fill="#B0EFFF"/>
<path fill-rule="evenodd" clip-rule="evenodd" d="M21.1697 44.3894C21.1697 45.1775 20.5309 45.8163 19.7428 45.8163C18.9548 45.8163 18.3159 45.1775 18.3159 44.3894C18.3159 43.6014 18.9548 42.9625 19.7428 42.9625C20.5309 42.9625 21.1697 43.6014 21.1697 44.3894Z" fill="#F2F2F2"/>
<path fill-rule="evenodd" clip-rule="evenodd" d="M29.7312 44.3894C29.7312 45.1775 29.0924 45.8163 28.3043 45.8163C27.5163 45.8163 26.8774 45.1775 26.8774 44.3894C26.8774 43.6014 27.5163 42.9625 28.3043 42.9625C29.0924 42.9625 29.7312 43.6014 29.7312 44.3894Z" fill="#B0EFFF"/>
</svg>
