<svg width="44" height="54" viewBox="0 0 44 54" fill="none" xmlns="http://www.w3.org/2000/svg">
<path fill-rule="evenodd" clip-rule="evenodd" d="M30.8234 29.3202C30.8234 37.5683 24.374 44.2547 16.4184 44.2547C8.46275 44.2547 2.01343 37.5683 2.01343 29.3202C2.01343 21.072 8.46275 14.3856 16.4184 14.3856C24.374 14.3856 30.8234 21.072 30.8234 29.3202Z" fill="#CCCCCC"/>
<path fill-rule="evenodd" clip-rule="evenodd" d="M9.75338 35.7481L7.03583 40.4471L4.31829 45.146L5.36496 39.8197L6.41162 34.4934L8.0825 35.1208L9.75338 35.7481Z" fill="#FFD42A"/>
<path d="M9.78457 35.6928L5.60596 33.2803L4.55048 35.1084L8.72909 37.5209L9.78457 35.6928Z" fill="#FFD42A"/>
<path d="M10.1331 29.6609L8.30493 28.6055L5.59084 33.3064L7.41899 34.3619L10.1331 29.6609Z" fill="#FFD42A"/>
<path fill-rule="evenodd" clip-rule="evenodd" d="M25.6262 36.8082L22.9086 41.5071L20.1911 46.2061L21.2378 40.8798L22.2844 35.5535L23.9553 36.1808L25.6262 36.8082Z" fill="#FFD42A"/>
<path d="M25.6574 36.7529L21.4788 34.3403L20.4233 36.1685L24.6019 38.581L25.6574 36.7529Z" fill="#FFD42A"/>
<path d="M26.0059 30.7211L24.1777 29.6656L21.4636 34.3666L23.2918 35.4221L26.0059 30.7211Z" fill="#FFD42A"/>
<path fill-rule="evenodd" clip-rule="evenodd" d="M18.5616 0.812622C22.6537 0.812622 26.1605 3.12941 28.0248 6.46838C29.0744 5.68231 30.415 5.17361 31.8861 5.17361C35.2296 5.17361 37.9431 7.61576 37.9431 10.6248C37.9431 11.3006 37.8147 11.9353 37.5647 12.5327C41.3673 14.0613 44.0002 17.5239 44.0002 21.5273C44.0002 26.9633 39.1376 31.3395 33.0975 31.3395H11.2931C5.25298 31.3395 0.390381 26.9633 0.390381 21.5273C0.390381 17.2208 3.46251 13.5881 7.73394 12.2602C7.73394 12.0751 7.6588 11.9037 7.6588 11.7153C7.6588 5.69706 12.5433 0.812622 18.5616 0.812622Z" fill="#B0EFFF"/>
<path fill-rule="evenodd" clip-rule="evenodd" d="M20.394 32.7253L14.9589 42.1232L9.52379 51.5211L11.6171 40.8685L13.7104 30.2158L17.0522 31.4706L20.394 32.7253Z" fill="#FFD42A"/>
<path d="M20.4561 32.6148L12.0989 27.7898L9.98792 31.4461L18.3451 36.2711L20.4561 32.6148Z" fill="#FFD42A"/>
<path d="M21.1529 20.551L17.4966 18.4401L12.0684 27.8419L15.7247 29.9529L21.1529 20.551Z" fill="#FFD42A"/>
<path fill-rule="evenodd" clip-rule="evenodd" d="M17.8341 34.2469C17.8341 35.0497 17.1832 35.7005 16.3804 35.7005C15.5776 35.7005 14.9268 35.0497 14.9268 34.2469C14.9268 33.444 15.5776 32.7932 16.3804 32.7932C17.1832 32.7932 17.8341 33.444 17.8341 34.2469Z" fill="#B0EFFF"/>
<path fill-rule="evenodd" clip-rule="evenodd" d="M26.5562 34.2469C26.5562 35.0497 25.9054 35.7005 25.1026 35.7005C24.2997 35.7005 23.6489 35.0497 23.6489 34.2469C23.6489 33.444 24.2997 32.7932 25.1026 32.7932C25.9054 32.7932 26.5562 33.444 26.5562 34.2469Z" fill="#F2F2F2"/>
<path fill-rule="evenodd" clip-rule="evenodd" d="M35.2779 34.2469C35.2779 35.0497 34.6271 35.7005 33.8243 35.7005C33.0214 35.7005 32.3706 35.0497 32.3706 34.2469C32.3706 33.444 33.0214 32.7932 33.8243 32.7932C34.6271 32.7932 35.2779 33.444 35.2779 34.2469Z" fill="#B0EFFF"/>
<path fill-rule="evenodd" clip-rule="evenodd" d="M14.9271 40.0614C14.9271 40.8643 14.2763 41.5151 13.4734 41.5151C12.6706 41.5151 12.0198 40.8643 12.0198 40.0614C12.0198 39.2586 12.6706 38.6078 13.4734 38.6078C14.2763 38.6078 14.9271 39.2586 14.9271 40.0614Z" fill="#F2F2F2"/>
<path fill-rule="evenodd" clip-rule="evenodd" d="M23.6488 40.0614C23.6488 40.8643 22.9979 41.5151 22.1951 41.5151C21.3923 41.5151 20.7415 40.8643 20.7415 40.0614C20.7415 39.2586 21.3923 38.6078 22.1951 38.6078C22.9979 38.6078 23.6488 39.2586 23.6488 40.0614Z" fill="#B0EFFF"/>
<path fill-rule="evenodd" clip-rule="evenodd" d="M32.3709 40.0614C32.3709 40.8643 31.7201 41.5151 30.9173 41.5151C30.1144 41.5151 29.4636 40.8643 29.4636 40.0614C29.4636 39.2586 30.1144 38.6078 30.9173 38.6078C31.7201 38.6078 32.3709 39.2586 32.3709 40.0614Z" fill="#F2F2F2"/>
<path fill-rule="evenodd" clip-rule="evenodd" d="M12.0194 45.8761C12.0194 46.679 11.3686 47.3298 10.5657 47.3298C9.76288 47.3298 9.11206 46.679 9.11206 45.8761C9.11206 45.0733 9.76288 44.4225 10.5657 44.4225C11.3686 44.4225 12.0194 45.0733 12.0194 45.8761Z" fill="#B0EFFF"/>
<path fill-rule="evenodd" clip-rule="evenodd" d="M20.7415 45.8761C20.7415 46.679 20.0907 47.3298 19.2879 47.3298C18.4851 47.3298 17.8342 46.679 17.8342 45.8761C17.8342 45.0733 18.4851 44.4225 19.2879 44.4225C20.0907 44.4225 20.7415 45.0733 20.7415 45.8761Z" fill="#F2F2F2"/>
<path fill-rule="evenodd" clip-rule="evenodd" d="M29.4635 45.8761C29.4635 46.679 28.8126 47.3298 28.0098 47.3298C27.207 47.3298 26.5562 46.679 26.5562 45.8761C26.5562 45.0733 27.207 44.4225 28.0098 44.4225C28.8126 44.4225 29.4635 45.0733 29.4635 45.8761Z" fill="#B0EFFF"/>
</svg>
