<svg width="44" height="38" viewBox="0 0 44 38" fill="none" xmlns="http://www.w3.org/2000/svg">
<path fill-rule="evenodd" clip-rule="evenodd" d="M43.9998 14.297C43.9998 21.7635 38.1617 27.8163 30.9599 27.8163C23.7581 27.8163 17.9199 21.7635 17.9199 14.297C17.9199 6.83042 23.7581 0.777588 30.9599 0.777588C38.1617 0.777588 43.9998 6.83042 43.9998 14.297Z" fill="#CCCCCC"/>
<path fill-rule="evenodd" clip-rule="evenodd" d="M16.119 10.7334C19.7489 10.7334 22.8597 12.7885 24.5135 15.7504C25.4445 15.0531 26.6337 14.6019 27.9387 14.6019C30.9045 14.6019 33.3116 16.7682 33.3116 19.4374C33.3116 20.0369 33.1977 20.5999 32.9759 21.1299C36.3491 22.4858 38.6846 25.5574 38.6846 29.1086C38.6846 33.9307 34.3712 37.8126 29.0132 37.8126H9.67137C4.31343 37.8126 0 33.9307 0 29.1086C0 25.2885 2.72517 22.0661 6.51419 20.8881C6.51419 20.7239 6.44755 20.5719 6.44755 20.4047C6.44755 15.0662 10.7804 10.7334 16.119 10.7334Z" fill="#B0EFFF"/>
</svg>
