<svg width="44" height="45" viewBox="0 0 44 45" fill="none" xmlns="http://www.w3.org/2000/svg">
<path fill-rule="evenodd" clip-rule="evenodd" d="M30.7052 29.1568C30.7052 37.4787 24.1981 44.225 16.1713 44.225C8.14448 44.225 1.63745 37.4787 1.63745 29.1568C1.63745 20.8349 8.14448 14.0886 16.1713 14.0886C24.1981 14.0886 30.7052 20.8349 30.7052 29.1568Z" fill="#CCCCCC"/>
<path fill-rule="evenodd" clip-rule="evenodd" d="M18.3338 0.394165C22.4625 0.394165 26.0007 2.73168 27.8817 6.10053C28.9407 5.30742 30.2932 4.79418 31.7775 4.79418C35.1509 4.79418 37.8888 7.25817 37.8888 10.2942C37.8888 10.976 37.7592 11.6164 37.5069 12.2192C41.3436 13.7614 44 17.255 44 21.2942C44 26.7788 39.0939 31.1942 32.9998 31.1942H11.0002C4.90611 31.1942 0 26.7788 0 21.2942C0 16.9492 3.09962 13.284 7.40927 11.9442C7.40927 11.7574 7.33346 11.5845 7.33346 11.3944C7.33346 5.32231 12.2616 0.394165 18.3338 0.394165Z" fill="#B0EFFF"/>
<path fill-rule="evenodd" clip-rule="evenodd" d="M13.2112 34.5659L13.2377 34.626L13.303 34.6189L13.2642 34.6719L13.303 34.7249L13.2377 34.7178L13.2112 34.7779L13.1847 34.7178L13.1194 34.7249L13.1582 34.6719L13.1194 34.6189L13.1847 34.626L13.2112 34.5659Z" fill="#B0EFFF" stroke="#B0EFFF" stroke-width="0.8"/>
<path fill-rule="evenodd" clip-rule="evenodd" d="M30.6516 34.5659L30.6781 34.626L30.7434 34.6189L30.7046 34.6719L30.7434 34.7249L30.6781 34.7178L30.6516 34.7779L30.6251 34.7178L30.5598 34.7249L30.5986 34.6719L30.5598 34.6189L30.6251 34.626L30.6516 34.5659Z" fill="#B0EFFF" stroke="#B0EFFF" stroke-width="0.8"/>
<path fill-rule="evenodd" clip-rule="evenodd" d="M11.7577 38.9261L11.7889 38.9893L11.8586 38.9994L11.8082 39.0486L11.8201 39.118L11.7578 39.0852L11.6955 39.118L11.7074 39.0486L11.657 38.9994L11.7266 38.9893L11.7577 38.9261Z" fill="#B0EFFF" stroke="#B0EFFF" stroke-width="0.8"/>
<path fill-rule="evenodd" clip-rule="evenodd" d="M10.3042 43.2863L10.3307 43.3464L10.396 43.3392L10.3572 43.3922L10.396 43.4452L10.3307 43.4381L10.3042 43.4982L10.2777 43.4381L10.2124 43.4452L10.2512 43.3922L10.2124 43.3392L10.2777 43.3464L10.3042 43.2863Z" fill="#B0EFFF" stroke="#B0EFFF" stroke-width="0.8"/>
<path fill-rule="evenodd" clip-rule="evenodd" d="M29.1982 38.9261L29.2293 38.9893L29.299 38.9994L29.2486 39.0486L29.2605 39.118L29.1982 39.0852L29.1359 39.118L29.1478 39.0486L29.0974 38.9994L29.1671 38.9893L29.1982 38.9261Z" fill="#B0EFFF" stroke="#B0EFFF" stroke-width="0.8"/>
<path fill-rule="evenodd" clip-rule="evenodd" d="M20.478 38.9261L20.5045 38.9862L20.5698 38.9791L20.531 39.0321L20.5698 39.0851L20.5045 39.078L20.478 39.1381L20.4515 39.078L20.3862 39.0851L20.425 39.0321L20.3862 38.9791L20.4515 38.9862L20.478 38.9261Z" fill="#B0EFFF" stroke="#B0EFFF" stroke-width="0.8"/>
<path fill-rule="evenodd" clip-rule="evenodd" d="M21.9313 34.5659L21.9625 34.629L22.0322 34.6392L21.9817 34.6884L21.9937 34.7577L21.9314 34.725L21.8691 34.7577L21.881 34.6884L21.8306 34.6392L21.9002 34.629L21.9313 34.5659Z" fill="#B0EFFF" stroke="#B0EFFF" stroke-width="0.8"/>
<path fill-rule="evenodd" clip-rule="evenodd" d="M19.0248 43.2863L19.056 43.3494L19.1257 43.3595L19.0753 43.4087L19.0872 43.4781L19.0249 43.4453L18.9626 43.4781L18.9745 43.4087L18.9241 43.3595L18.9937 43.3494L19.0248 43.2863Z" fill="#B0EFFF" stroke="#B0EFFF" stroke-width="0.8"/>
<path fill-rule="evenodd" clip-rule="evenodd" d="M27.7451 43.2863L27.7716 43.3464L27.8369 43.3392L27.7981 43.3922L27.8369 43.4452L27.7716 43.4381L27.7451 43.4982L27.7186 43.4381L27.6533 43.4452L27.6921 43.3922L27.6533 43.3392L27.7186 43.3464L27.7451 43.2863Z" fill="#B0EFFF" stroke="#B0EFFF" stroke-width="0.8"/>
<path fill-rule="evenodd" clip-rule="evenodd" d="M17.004 36.7461L17.0414 36.8146L17.11 36.8521L17.0414 36.8896L17.004 36.9581L16.9665 36.8896L16.8979 36.8521L16.9665 36.8146L17.004 36.7461Z" fill="#B0EFFF" stroke="#E6E6E6" stroke-width="0.8"/>
<path fill-rule="evenodd" clip-rule="evenodd" d="M25.826 36.9973L25.8635 37.0658L25.932 37.1033L25.8635 37.1408L25.826 37.2093L25.7885 37.1408L25.72 37.1033L25.7885 37.0658L25.826 36.9973Z" fill="#B0EFFF" stroke="#E6E6E6" stroke-width="0.8"/>
<path fill-rule="evenodd" clip-rule="evenodd" d="M15.2254 41.6616L15.2629 41.7301L15.3314 41.7676L15.2629 41.8051L15.2254 41.8736L15.1879 41.8051L15.1194 41.7676L15.1879 41.7301L15.2254 41.6616Z" fill="#B0EFFF" stroke="#E6E6E6" stroke-width="0.8"/>
<path fill-rule="evenodd" clip-rule="evenodd" d="M23.9178 41.6616L23.9553 41.7301L24.0238 41.7676L23.9553 41.8051L23.9178 41.8736L23.8803 41.8051L23.8118 41.7676L23.8803 41.7301L23.9178 41.6616Z" fill="#B0EFFF" stroke="#E6E6E6" stroke-width="0.8"/>
</svg>
