<svg width="44" height="48" viewBox="0 0 44 48" fill="none" xmlns="http://www.w3.org/2000/svg">
<path fill-rule="evenodd" clip-rule="evenodd" d="M30.7052 29.5153C30.7052 37.8373 24.1981 44.5835 16.1713 44.5835C8.14448 44.5835 1.63745 37.8373 1.63745 29.5153C1.63745 21.1934 8.14448 14.4471 16.1713 14.4471C24.1981 14.4471 30.7052 21.1934 30.7052 29.5153Z" fill="#FFF696"/>
<path fill-rule="evenodd" clip-rule="evenodd" d="M18.3338 0.752686C22.4625 0.752686 26.0007 3.0902 27.8817 6.45905C28.9407 5.66594 30.2932 5.1527 31.7775 5.1527C35.1509 5.1527 37.8888 7.61669 37.8888 10.6527C37.8888 11.3345 37.7592 11.9749 37.5069 12.5777C41.3436 14.1199 44 17.6135 44 21.6527C44 27.1373 39.0939 31.5527 32.9998 31.5527H11.0002C4.90611 31.5527 0 27.1373 0 21.6527C0 17.3077 3.09962 13.6425 7.40927 12.3027C7.40927 12.1159 7.33346 11.943 7.33346 11.7529C7.33346 5.68083 12.2616 0.752686 18.3338 0.752686Z" fill="#B0EFFF"/>
<path fill-rule="evenodd" clip-rule="evenodd" d="M17.5998 34.4861C17.5998 35.2961 16.9432 35.9527 16.1332 35.9527C15.3232 35.9527 14.6665 35.2961 14.6665 34.4861C14.6665 33.6761 15.3232 33.0194 16.1332 33.0194C16.9432 33.0194 17.5998 33.6761 17.5998 34.4861Z" fill="#B0EFFF"/>
<path fill-rule="evenodd" clip-rule="evenodd" d="M26.4001 34.4861C26.4001 35.2961 25.7435 35.9527 24.9335 35.9527C24.1234 35.9527 23.4668 35.2961 23.4668 34.4861C23.4668 33.6761 24.1234 33.0194 24.9335 33.0194C25.7435 33.0194 26.4001 33.6761 26.4001 34.4861Z" fill="#F2F2F2"/>
<path fill-rule="evenodd" clip-rule="evenodd" d="M35.1999 34.4861C35.1999 35.2961 34.5433 35.9527 33.7333 35.9527C32.9232 35.9527 32.2666 35.2961 32.2666 34.4861C32.2666 33.6761 32.9232 33.0194 33.7333 33.0194C34.5433 33.0194 35.1999 33.6761 35.1999 34.4861Z" fill="#B0EFFF"/>
<path fill-rule="evenodd" clip-rule="evenodd" d="M14.6667 40.3528C14.6667 41.1628 14.0101 41.8194 13.2001 41.8194C12.39 41.8194 11.7334 41.1628 11.7334 40.3528C11.7334 39.5428 12.39 38.8861 13.2001 38.8861C14.0101 38.8861 14.6667 39.5428 14.6667 40.3528Z" fill="#F2F2F2"/>
<path fill-rule="evenodd" clip-rule="evenodd" d="M23.4665 40.3528C23.4665 41.1628 22.8099 41.8194 21.9999 41.8194C21.1899 41.8194 20.5332 41.1628 20.5332 40.3528C20.5332 39.5428 21.1899 38.8861 21.9999 38.8861C22.8099 38.8861 23.4665 39.5428 23.4665 40.3528Z" fill="#B0EFFF"/>
<path fill-rule="evenodd" clip-rule="evenodd" d="M32.2668 40.3528C32.2668 41.1628 31.6102 41.8194 30.8002 41.8194C29.9901 41.8194 29.3335 41.1628 29.3335 40.3528C29.3335 39.5428 29.9901 38.8861 30.8002 38.8861C31.6102 38.8861 32.2668 39.5428 32.2668 40.3528Z" fill="#F2F2F2"/>
<path fill-rule="evenodd" clip-rule="evenodd" d="M11.7331 46.2195C11.7331 47.0295 11.0765 47.6861 10.2665 47.6861C9.45645 47.6861 8.7998 47.0295 8.7998 46.2195C8.7998 45.4095 9.45645 44.7528 10.2665 44.7528C11.0765 44.7528 11.7331 45.4095 11.7331 46.2195Z" fill="#B0EFFF"/>
<path fill-rule="evenodd" clip-rule="evenodd" d="M20.5334 46.2195C20.5334 47.0295 19.8768 47.6861 19.0668 47.6861C18.2567 47.6861 17.6001 47.0295 17.6001 46.2195C17.6001 45.4095 18.2567 44.7528 19.0668 44.7528C19.8768 44.7528 20.5334 45.4095 20.5334 46.2195Z" fill="#F2F2F2"/>
<path fill-rule="evenodd" clip-rule="evenodd" d="M29.3332 46.2195C29.3332 47.0295 28.6766 47.6861 27.8666 47.6861C27.0565 47.6861 26.3999 47.0295 26.3999 46.2195C26.3999 45.4095 27.0565 44.7528 27.8666 44.7528C28.6766 44.7528 29.3332 45.4095 29.3332 46.2195Z" fill="#B0EFFF"/>
</svg>
