<svg width="44" height="47" viewBox="0 0 44 47" fill="none" xmlns="http://www.w3.org/2000/svg">
<path fill-rule="evenodd" clip-rule="evenodd" d="M18.3338 0C22.4625 0 26.0007 2.33752 27.8817 5.70637C28.9407 4.91326 30.2932 4.40001 31.7775 4.40001C35.1509 4.40001 37.8888 6.86401 37.8888 9.90001C37.8888 10.5818 37.7592 11.2222 37.5069 11.825C41.3436 13.3672 44 16.8608 44 20.9C44 26.3846 39.0939 30.8 32.9998 30.8H11.0002C4.90611 30.8 0 26.3846 0 20.9C0 16.555 3.09962 12.8898 7.40927 11.55C7.40927 11.3632 7.33346 11.1904 7.33346 11.0002C7.33346 4.92815 12.2616 0 18.3338 0Z" fill="#B0EFFF"/>
<path fill-rule="evenodd" clip-rule="evenodd" d="M17.5998 33.7334C17.5998 34.5434 16.9432 35.2001 16.1332 35.2001C15.3232 35.2001 14.6665 34.5434 14.6665 33.7334C14.6665 32.9234 15.3232 32.2667 16.1332 32.2667C16.9432 32.2667 17.5998 32.9234 17.5998 33.7334Z" fill="#B0EFFF"/>
<path fill-rule="evenodd" clip-rule="evenodd" d="M26.4001 33.7334C26.4001 34.5434 25.7435 35.2001 24.9335 35.2001C24.1234 35.2001 23.4668 34.5434 23.4668 33.7334C23.4668 32.9234 24.1234 32.2667 24.9335 32.2667C25.7435 32.2667 26.4001 32.9234 26.4001 33.7334Z" fill="#B0EFFF"/>
<path fill-rule="evenodd" clip-rule="evenodd" d="M35.1999 33.7334C35.1999 34.5434 34.5433 35.2001 33.7333 35.2001C32.9232 35.2001 32.2666 34.5434 32.2666 33.7334C32.2666 32.9234 32.9232 32.2667 33.7333 32.2667C34.5433 32.2667 35.1999 32.9234 35.1999 33.7334Z" fill="#B0EFFF"/>
<path fill-rule="evenodd" clip-rule="evenodd" d="M14.6667 39.6001C14.6667 40.4101 14.0101 41.0668 13.2001 41.0668C12.39 41.0668 11.7334 40.4101 11.7334 39.6001C11.7334 38.7901 12.39 38.1334 13.2001 38.1334C14.0101 38.1334 14.6667 38.7901 14.6667 39.6001Z" fill="#B0EFFF"/>
<path fill-rule="evenodd" clip-rule="evenodd" d="M23.4665 39.6001C23.4665 40.4101 22.8099 41.0668 21.9999 41.0668C21.1899 41.0668 20.5332 40.4101 20.5332 39.6001C20.5332 38.7901 21.1899 38.1334 21.9999 38.1334C22.8099 38.1334 23.4665 38.7901 23.4665 39.6001Z" fill="#B0EFFF"/>
<path fill-rule="evenodd" clip-rule="evenodd" d="M32.2668 39.6001C32.2668 40.4101 31.6102 41.0668 30.8002 41.0668C29.9901 41.0668 29.3335 40.4101 29.3335 39.6001C29.3335 38.7901 29.9901 38.1334 30.8002 38.1334C31.6102 38.1334 32.2668 38.7901 32.2668 39.6001Z" fill="#B0EFFF"/>
<path fill-rule="evenodd" clip-rule="evenodd" d="M11.7331 45.4668C11.7331 46.2768 11.0765 46.9335 10.2665 46.9335C9.45645 46.9335 8.7998 46.2768 8.7998 45.4668C8.7998 44.6568 9.45645 44.0001 10.2665 44.0001C11.0765 44.0001 11.7331 44.6568 11.7331 45.4668Z" fill="#B0EFFF"/>
<path fill-rule="evenodd" clip-rule="evenodd" d="M20.5334 45.4668C20.5334 46.2768 19.8768 46.9335 19.0668 46.9335C18.2567 46.9335 17.6001 46.2768 17.6001 45.4668C17.6001 44.6568 18.2567 44.0001 19.0668 44.0001C19.8768 44.0001 20.5334 44.6568 20.5334 45.4668Z" fill="#B0EFFF"/>
<path fill-rule="evenodd" clip-rule="evenodd" d="M29.3332 45.4668C29.3332 46.2768 28.6766 46.9335 27.8666 46.9335C27.0565 46.9335 26.3999 46.2768 26.3999 45.4668C26.3999 44.6568 27.0565 44.0001 27.8666 44.0001C28.6766 44.0001 29.3332 44.6568 29.3332 45.4668Z" fill="#B0EFFF"/>
</svg>
