<svg width="44" height="42" viewBox="0 0 44 42" fill="none" xmlns="http://www.w3.org/2000/svg">
<path fill-rule="evenodd" clip-rule="evenodd" d="M43.9998 20.8888C43.9998 32.4254 34.9792 41.7776 23.8517 41.7776C12.7242 41.7776 3.70361 32.4254 3.70361 20.8888C3.70361 9.35224 12.7242 0 23.8517 0C34.9792 0 43.9998 9.35224 43.9998 20.8888Z" fill="#FFF696"/>
<path fill-rule="evenodd" clip-rule="evenodd" d="M10.3326 23.3259C12.6595 23.3259 14.6535 24.6433 15.7137 26.5419C16.3105 26.095 17.0727 25.8057 17.9093 25.8057C19.8105 25.8057 21.3535 27.1944 21.3535 28.9054C21.3535 29.2897 21.2804 29.6506 21.1383 29.9903C23.3005 30.8595 24.7976 32.8284 24.7976 35.1048C24.7976 38.1959 22.0326 40.6843 18.5981 40.6843H6.19955C2.765 40.6843 0 38.1959 0 35.1048C0 32.656 1.74689 30.5904 4.17574 29.8353C4.17574 29.73 4.13301 29.6326 4.13301 29.5255C4.13301 26.1033 6.91044 23.3259 10.3326 23.3259Z" fill="#B0EFFF"/>
</svg>
