<svg width="44" height="48" viewBox="0 0 44 48" fill="none" xmlns="http://www.w3.org/2000/svg">
<path fill-rule="evenodd" clip-rule="evenodd" d="M18.3338 0.775146C22.4625 0.775146 26.0007 3.11266 27.8817 6.48151C28.9407 5.6884 30.2932 5.17516 31.7775 5.17516C35.1509 5.17516 37.8888 7.63915 37.8888 10.6752C37.8888 11.357 37.7592 11.9973 37.5069 12.6001C41.3436 14.1424 44 17.636 44 21.6752C44 27.1598 39.0939 31.5751 32.9998 31.5751H11.0002C4.90611 31.5751 0 27.1598 0 21.6752C0 17.3302 3.09962 13.665 7.40927 12.3252C7.40927 12.1384 7.33346 11.9655 7.33346 11.7754C7.33346 5.70329 12.2616 0.775146 18.3338 0.775146Z" fill="#B0EFFF"/>
<path fill-rule="evenodd" clip-rule="evenodd" d="M17.5998 34.5085C17.5998 35.3186 16.9432 35.9752 16.1332 35.9752C15.3232 35.9752 14.6665 35.3186 14.6665 34.5085C14.6665 33.6985 15.3232 33.0419 16.1332 33.0419C16.9432 33.0419 17.5998 33.6985 17.5998 34.5085Z" fill="#B0EFFF"/>
<path fill-rule="evenodd" clip-rule="evenodd" d="M26.4001 34.5085C26.4001 35.3186 25.7435 35.9752 24.9335 35.9752C24.1234 35.9752 23.4668 35.3186 23.4668 34.5085C23.4668 33.6985 24.1234 33.0419 24.9335 33.0419C25.7435 33.0419 26.4001 33.6985 26.4001 34.5085Z" fill="#F2F2F2"/>
<path fill-rule="evenodd" clip-rule="evenodd" d="M35.1999 34.5085C35.1999 35.3186 34.5433 35.9752 33.7333 35.9752C32.9232 35.9752 32.2666 35.3186 32.2666 34.5085C32.2666 33.6985 32.9232 33.0419 33.7333 33.0419C34.5433 33.0419 35.1999 33.6985 35.1999 34.5085Z" fill="#B0EFFF"/>
<path fill-rule="evenodd" clip-rule="evenodd" d="M14.6667 40.3752C14.6667 41.1853 14.0101 41.8419 13.2001 41.8419C12.39 41.8419 11.7334 41.1853 11.7334 40.3752C11.7334 39.5652 12.39 38.9086 13.2001 38.9086C14.0101 38.9086 14.6667 39.5652 14.6667 40.3752Z" fill="#F2F2F2"/>
<path fill-rule="evenodd" clip-rule="evenodd" d="M23.4665 40.3752C23.4665 41.1853 22.8099 41.8419 21.9999 41.8419C21.1899 41.8419 20.5332 41.1853 20.5332 40.3752C20.5332 39.5652 21.1899 38.9086 21.9999 38.9086C22.8099 38.9086 23.4665 39.5652 23.4665 40.3752Z" fill="#B0EFFF"/>
<path fill-rule="evenodd" clip-rule="evenodd" d="M32.2668 40.3752C32.2668 41.1853 31.6102 41.8419 30.8002 41.8419C29.9901 41.8419 29.3335 41.1853 29.3335 40.3752C29.3335 39.5652 29.9901 38.9086 30.8002 38.9086C31.6102 38.9086 32.2668 39.5652 32.2668 40.3752Z" fill="#F2F2F2"/>
<path fill-rule="evenodd" clip-rule="evenodd" d="M11.7331 46.2419C11.7331 47.052 11.0765 47.7086 10.2665 47.7086C9.45645 47.7086 8.7998 47.052 8.7998 46.2419C8.7998 45.4319 9.45645 44.7753 10.2665 44.7753C11.0765 44.7753 11.7331 45.4319 11.7331 46.2419Z" fill="#B0EFFF"/>
<path fill-rule="evenodd" clip-rule="evenodd" d="M20.5334 46.2419C20.5334 47.052 19.8768 47.7086 19.0668 47.7086C18.2567 47.7086 17.6001 47.052 17.6001 46.2419C17.6001 45.4319 18.2567 44.7753 19.0668 44.7753C19.8768 44.7753 20.5334 45.4319 20.5334 46.2419Z" fill="#F2F2F2"/>
<path fill-rule="evenodd" clip-rule="evenodd" d="M29.3332 46.2419C29.3332 47.052 28.6766 47.7086 27.8666 47.7086C27.0565 47.7086 26.3999 47.052 26.3999 46.2419C26.3999 45.4319 27.0565 44.7753 27.8666 44.7753C28.6766 44.7753 29.3332 45.4319 29.3332 46.2419Z" fill="#B0EFFF"/>
</svg>
