<svg width="44" height="31" viewBox="0 0 44 31" fill="none" xmlns="http://www.w3.org/2000/svg">
<path fill-rule="evenodd" clip-rule="evenodd" d="M18.3338 0C22.4625 0 26.0007 2.33752 27.8818 5.70637C28.9407 4.91326 30.2933 4.40001 31.7776 4.40001C35.151 4.40001 37.8888 6.86401 37.8888 9.90001C37.8888 10.5818 37.7593 11.2222 37.5069 11.825C41.3436 13.3672 44 16.8608 44 20.9001C44 26.3847 39.0939 30.8 32.9997 30.8H11.0002C4.90611 30.8 0 26.3847 0 20.9001C0 16.555 3.09962 12.8898 7.40927 11.55C7.40927 11.3632 7.33347 11.1904 7.33347 11.0002C7.33347 4.92814 12.2617 0 18.3338 0Z" fill="#B0EFFF"/>
</svg>
