<svg width="44" height="48" viewBox="0 0 44 48" fill="none" xmlns="http://www.w3.org/2000/svg">
<path fill-rule="evenodd" clip-rule="evenodd" d="M30.7052 29.1344C30.7052 37.4563 24.1981 44.2025 16.1713 44.2025C8.14448 44.2025 1.63745 37.4563 1.63745 29.1344C1.63745 20.8124 8.14448 14.0662 16.1713 14.0662C24.1981 14.0662 30.7052 20.8124 30.7052 29.1344Z" fill="#FFF696"/>
<path fill-rule="evenodd" clip-rule="evenodd" d="M18.3338 0.371704C22.4625 0.371704 26.0007 2.70922 27.8817 6.07807C28.9407 5.28496 30.2932 4.77172 31.7775 4.77172C35.1509 4.77172 37.8888 7.23571 37.8888 10.2717C37.8888 10.9535 37.7592 11.5939 37.5069 12.1967C41.3436 13.7389 44 17.2325 44 21.2718C44 26.7564 39.0939 31.1717 32.9998 31.1717H11.0002C4.90611 31.1717 0 26.7564 0 21.2718C0 16.9267 3.09962 13.2615 7.40927 11.9217C7.40927 11.7349 7.33346 11.5621 7.33346 11.3719C7.33346 5.29985 12.2616 0.371704 18.3338 0.371704Z" fill="#B0EFFF"/>
<path fill-rule="evenodd" clip-rule="evenodd" d="M17.5998 34.1051C17.5998 34.9151 16.9432 35.5718 16.1332 35.5718C15.3232 35.5718 14.6665 34.9151 14.6665 34.1051C14.6665 33.2951 15.3232 32.6384 16.1332 32.6384C16.9432 32.6384 17.5998 33.2951 17.5998 34.1051Z" fill="#B0EFFF"/>
<path fill-rule="evenodd" clip-rule="evenodd" d="M26.4001 34.1051C26.4001 34.9151 25.7435 35.5718 24.9335 35.5718C24.1234 35.5718 23.4668 34.9151 23.4668 34.1051C23.4668 33.2951 24.1234 32.6384 24.9335 32.6384C25.7435 32.6384 26.4001 33.2951 26.4001 34.1051Z" fill="#F2F2F2"/>
<path fill-rule="evenodd" clip-rule="evenodd" d="M35.1999 34.1051C35.1999 34.9151 34.5433 35.5718 33.7333 35.5718C32.9232 35.5718 32.2666 34.9151 32.2666 34.1051C32.2666 33.2951 32.9232 32.6384 33.7333 32.6384C34.5433 32.6384 35.1999 33.2951 35.1999 34.1051Z" fill="#B0EFFF"/>
<path fill-rule="evenodd" clip-rule="evenodd" d="M14.6667 39.9718C14.6667 40.7818 14.0101 41.4385 13.2001 41.4385C12.39 41.4385 11.7334 40.7818 11.7334 39.9718C11.7334 39.1618 12.39 38.5051 13.2001 38.5051C14.0101 38.5051 14.6667 39.1618 14.6667 39.9718Z" fill="#F2F2F2"/>
<path fill-rule="evenodd" clip-rule="evenodd" d="M23.4665 39.9718C23.4665 40.7818 22.8099 41.4385 21.9999 41.4385C21.1899 41.4385 20.5332 40.7818 20.5332 39.9718C20.5332 39.1618 21.1899 38.5051 21.9999 38.5051C22.8099 38.5051 23.4665 39.1618 23.4665 39.9718Z" fill="#B0EFFF"/>
<path fill-rule="evenodd" clip-rule="evenodd" d="M32.2668 39.9718C32.2668 40.7818 31.6102 41.4385 30.8002 41.4385C29.9901 41.4385 29.3335 40.7818 29.3335 39.9718C29.3335 39.1618 29.9901 38.5051 30.8002 38.5051C31.6102 38.5051 32.2668 39.1618 32.2668 39.9718Z" fill="#F2F2F2"/>
<path fill-rule="evenodd" clip-rule="evenodd" d="M11.7331 45.8385C11.7331 46.6485 11.0765 47.3052 10.2665 47.3052C9.45645 47.3052 8.7998 46.6485 8.7998 45.8385C8.7998 45.0285 9.45645 44.3718 10.2665 44.3718C11.0765 44.3718 11.7331 45.0285 11.7331 45.8385Z" fill="#B0EFFF"/>
<path fill-rule="evenodd" clip-rule="evenodd" d="M20.5334 45.8385C20.5334 46.6485 19.8768 47.3052 19.0668 47.3052C18.2567 47.3052 17.6001 46.6485 17.6001 45.8385C17.6001 45.0285 18.2567 44.3718 19.0668 44.3718C19.8768 44.3718 20.5334 45.0285 20.5334 45.8385Z" fill="#F2F2F2"/>
<path fill-rule="evenodd" clip-rule="evenodd" d="M29.3332 45.8385C29.3332 46.6485 28.6766 47.3052 27.8666 47.3052C27.0565 47.3052 26.3999 46.6485 26.3999 45.8385C26.3999 45.0285 27.0565 44.3718 27.8666 44.3718C28.6766 44.3718 29.3332 45.0285 29.3332 45.8385Z" fill="#B0EFFF"/>
</svg>
