<svg width="44" height="48" viewBox="0 0 44 48" fill="none" xmlns="http://www.w3.org/2000/svg">
<path fill-rule="evenodd" clip-rule="evenodd" d="M30.7052 29.1436C30.7052 37.4656 24.1981 44.2118 16.1713 44.2118C8.14448 44.2118 1.63745 37.4656 1.63745 29.1436C1.63745 20.8217 8.14448 14.0754 16.1713 14.0754C24.1981 14.0754 30.7052 20.8217 30.7052 29.1436Z" fill="#CCCCCC"/>
<path fill-rule="evenodd" clip-rule="evenodd" d="M18.3338 0.380981C22.4625 0.380981 26.0007 2.7185 27.8817 6.08735C28.9407 5.29424 30.2932 4.78099 31.7775 4.78099C35.1509 4.78099 37.8888 7.24499 37.8888 10.281C37.8888 10.9628 37.7592 11.6032 37.5069 12.206C41.3436 13.7482 44 17.2418 44 21.281C44 26.7656 39.0939 31.181 32.9998 31.181H11.0002C4.90611 31.181 0 26.7656 0 21.281C0 16.936 3.09962 13.2708 7.40927 11.931C7.40927 11.7442 7.33346 11.5713 7.33346 11.3812C7.33346 5.30913 12.2616 0.380981 18.3338 0.380981Z" fill="#B0EFFF"/>
<path fill-rule="evenodd" clip-rule="evenodd" d="M17.5998 34.1144C17.5998 34.9244 16.9432 35.581 16.1332 35.581C15.3232 35.581 14.6665 34.9244 14.6665 34.1144C14.6665 33.3044 15.3232 32.6477 16.1332 32.6477C16.9432 32.6477 17.5998 33.3044 17.5998 34.1144Z" fill="#B0EFFF"/>
<path fill-rule="evenodd" clip-rule="evenodd" d="M26.4001 34.1144C26.4001 34.9244 25.7435 35.581 24.9335 35.581C24.1234 35.581 23.4668 34.9244 23.4668 34.1144C23.4668 33.3044 24.1234 32.6477 24.9335 32.6477C25.7435 32.6477 26.4001 33.3044 26.4001 34.1144Z" fill="#F2F2F2"/>
<path fill-rule="evenodd" clip-rule="evenodd" d="M35.1999 34.1144C35.1999 34.9244 34.5433 35.581 33.7333 35.581C32.9232 35.581 32.2666 34.9244 32.2666 34.1144C32.2666 33.3044 32.9232 32.6477 33.7333 32.6477C34.5433 32.6477 35.1999 33.3044 35.1999 34.1144Z" fill="#B0EFFF"/>
<path fill-rule="evenodd" clip-rule="evenodd" d="M14.6667 39.9811C14.6667 40.7911 14.0101 41.4477 13.2001 41.4477C12.39 41.4477 11.7334 40.7911 11.7334 39.9811C11.7334 39.1711 12.39 38.5144 13.2001 38.5144C14.0101 38.5144 14.6667 39.1711 14.6667 39.9811Z" fill="#F2F2F2"/>
<path fill-rule="evenodd" clip-rule="evenodd" d="M23.4665 39.9811C23.4665 40.7911 22.8099 41.4477 21.9999 41.4477C21.1899 41.4477 20.5332 40.7911 20.5332 39.9811C20.5332 39.1711 21.1899 38.5144 21.9999 38.5144C22.8099 38.5144 23.4665 39.1711 23.4665 39.9811Z" fill="#B0EFFF"/>
<path fill-rule="evenodd" clip-rule="evenodd" d="M32.2668 39.9811C32.2668 40.7911 31.6102 41.4477 30.8002 41.4477C29.9901 41.4477 29.3335 40.7911 29.3335 39.9811C29.3335 39.1711 29.9901 38.5144 30.8002 38.5144C31.6102 38.5144 32.2668 39.1711 32.2668 39.9811Z" fill="#F2F2F2"/>
<path fill-rule="evenodd" clip-rule="evenodd" d="M11.7331 45.8478C11.7331 46.6578 11.0765 47.3144 10.2665 47.3144C9.45645 47.3144 8.7998 46.6578 8.7998 45.8478C8.7998 45.0378 9.45645 44.3811 10.2665 44.3811C11.0765 44.3811 11.7331 45.0378 11.7331 45.8478Z" fill="#B0EFFF"/>
<path fill-rule="evenodd" clip-rule="evenodd" d="M20.5334 45.8478C20.5334 46.6578 19.8768 47.3144 19.0668 47.3144C18.2567 47.3144 17.6001 46.6578 17.6001 45.8478C17.6001 45.0378 18.2567 44.3811 19.0668 44.3811C19.8768 44.3811 20.5334 45.0378 20.5334 45.8478Z" fill="#F2F2F2"/>
<path fill-rule="evenodd" clip-rule="evenodd" d="M29.3332 45.8478C29.3332 46.6578 28.6766 47.3144 27.8666 47.3144C27.0565 47.3144 26.3999 46.6578 26.3999 45.8478C26.3999 45.0378 27.0565 44.3811 27.8666 44.3811C28.6766 44.3811 29.3332 45.0378 29.3332 45.8478Z" fill="#B0EFFF"/>
</svg>
