<svg width="44" height="52" viewBox="0 0 44 52" fill="none" xmlns="http://www.w3.org/2000/svg">
<path fill-rule="evenodd" clip-rule="evenodd" d="M24.9265 35.4007L22.2832 39.9713L19.6399 44.5419L20.6579 39.3611L21.676 34.1802L23.3013 34.7904L24.9265 35.4007Z" fill="#FFD42A"/>
<path d="M24.9569 35.3471L20.8923 33.0005L19.8657 34.7787L23.9302 37.1254L24.9569 35.3471Z" fill="#FFD42A"/>
<path d="M25.2958 29.4799L23.5176 28.4532L20.8776 33.0258L22.6558 34.0525L25.2958 29.4799Z" fill="#FFD42A"/>
<path fill-rule="evenodd" clip-rule="evenodd" d="M9.48708 34.3696L6.84374 38.9403L4.2004 43.5109L5.21849 38.3301L6.23657 33.1492L7.86183 33.7594L9.48708 34.3696Z" fill="#FFD42A"/>
<path d="M9.5174 34.316L5.45288 31.9694L4.42622 33.7476L8.49074 36.0942L9.5174 34.316Z" fill="#FFD42A"/>
<path d="M9.85659 28.4488L8.07837 27.4221L5.43839 31.9947L7.21661 33.0214L9.85659 28.4488Z" fill="#FFD42A"/>
<path fill-rule="evenodd" clip-rule="evenodd" d="M19.0301 0C23.0469 0 26.4891 2.27412 28.3191 5.5516C29.3494 4.78 30.6652 4.28068 32.1093 4.28068C35.3912 4.28068 38.0548 6.67784 38.0548 9.6315C38.0548 10.2948 37.9287 10.9178 37.6833 11.5043C41.4159 13.0047 44.0002 16.4035 44.0002 20.3332C44.0002 25.6691 39.2272 29.9646 33.2983 29.9646H11.8955C5.96665 29.9646 1.1936 25.6691 1.1936 20.3332C1.1936 16.106 4.20916 12.5402 8.40192 11.2368C8.40192 11.055 8.32816 10.8869 8.32816 10.7019C8.32816 4.79449 13.1227 0 19.0301 0Z" fill="#B0EFFF"/>
<path fill-rule="evenodd" clip-rule="evenodd" d="M19.8372 31.4295L14.5505 40.5708L9.26384 49.712L11.3 39.3503L13.3362 28.9885L16.5867 30.209L19.8372 31.4295Z" fill="#FFD42A"/>
<path d="M19.8976 31.322L11.7686 26.6287L9.71524 30.1851L17.8443 34.8784L19.8976 31.322Z" fill="#FFD42A"/>
<path d="M20.5755 19.5876L17.019 17.5343L11.7391 26.6795L15.2955 28.7328L20.5755 19.5876Z" fill="#FFD42A"/>
<path fill-rule="evenodd" clip-rule="evenodd" d="M18.3159 32.8185C18.3159 33.6065 17.6771 34.2454 16.889 34.2454C16.101 34.2454 15.4622 33.6065 15.4622 32.8185C15.4622 32.0304 16.101 31.3916 16.889 31.3916C17.6771 31.3916 18.3159 32.0304 18.3159 32.8185Z" fill="#B0EFFF"/>
<path fill-rule="evenodd" clip-rule="evenodd" d="M26.8772 32.8185C26.8772 33.6065 26.2384 34.2454 25.4503 34.2454C24.6623 34.2454 24.0234 33.6065 24.0234 32.8185C24.0234 32.0304 24.6623 31.3916 25.4503 31.3916C26.2384 31.3916 26.8772 32.0304 26.8772 32.8185Z" fill="#F2F2F2"/>
<path fill-rule="evenodd" clip-rule="evenodd" d="M35.4387 32.8185C35.4387 33.6065 34.7999 34.2454 34.0118 34.2454C33.2238 34.2454 32.585 33.6065 32.585 32.8185C32.585 32.0304 33.2238 31.3916 34.0118 31.3916C34.7999 31.3916 35.4387 32.0304 35.4387 32.8185Z" fill="#B0EFFF"/>
<path fill-rule="evenodd" clip-rule="evenodd" d="M15.4619 38.526C15.4619 39.3141 14.8231 39.9529 14.035 39.9529C13.247 39.9529 12.6082 39.3141 12.6082 38.526C12.6082 37.738 13.247 37.0991 14.035 37.0991C14.8231 37.0991 15.4619 37.738 15.4619 38.526Z" fill="#F2F2F2"/>
<path fill-rule="evenodd" clip-rule="evenodd" d="M24.0237 38.526C24.0237 39.3141 23.3849 39.9529 22.5968 39.9529C21.8088 39.9529 21.1699 39.3141 21.1699 38.526C21.1699 37.738 21.8088 37.0991 22.5968 37.0991C23.3849 37.0991 24.0237 37.738 24.0237 38.526Z" fill="#B0EFFF"/>
<path fill-rule="evenodd" clip-rule="evenodd" d="M32.5847 38.526C32.5847 39.3141 31.9459 39.9529 31.1578 39.9529C30.3698 39.9529 29.731 39.3141 29.731 38.526C29.731 37.738 30.3698 37.0991 31.1578 37.0991C31.9459 37.0991 32.5847 37.738 32.5847 38.526Z" fill="#F2F2F2"/>
<path fill-rule="evenodd" clip-rule="evenodd" d="M12.6084 44.2337C12.6084 45.0217 11.9696 45.6605 11.1815 45.6605C10.3935 45.6605 9.75464 45.0217 9.75464 44.2337C9.75464 43.4456 10.3935 42.8068 11.1815 42.8068C11.9696 42.8068 12.6084 43.4456 12.6084 44.2337Z" fill="#B0EFFF"/>
<path fill-rule="evenodd" clip-rule="evenodd" d="M21.1697 44.2337C21.1697 45.0217 20.5309 45.6605 19.7428 45.6605C18.9548 45.6605 18.3159 45.0217 18.3159 44.2337C18.3159 43.4456 18.9548 42.8068 19.7428 42.8068C20.5309 42.8068 21.1697 43.4456 21.1697 44.2337Z" fill="#F2F2F2"/>
<path fill-rule="evenodd" clip-rule="evenodd" d="M29.7312 44.2337C29.7312 45.0217 29.0924 45.6605 28.3043 45.6605C27.5163 45.6605 26.8774 45.0217 26.8774 44.2337C26.8774 43.4456 27.5163 42.8068 28.3043 42.8068C29.0924 42.8068 29.7312 43.4456 29.7312 44.2337Z" fill="#B0EFFF"/>
</svg>
