<svg width="44" height="54" viewBox="0 0 44 54" fill="none" xmlns="http://www.w3.org/2000/svg">
<path fill-rule="evenodd" clip-rule="evenodd" d="M9.75338 35.8689L7.03583 40.5678L4.31829 45.2668L5.36496 39.9405L6.41162 34.6141L8.0825 35.2415L9.75338 35.8689Z" fill="#FFD42A"/>
<path d="M9.78457 35.8135L5.60596 33.401L4.55048 35.2291L8.72909 37.6417L9.78457 35.8135Z" fill="#FFD42A"/>
<path d="M10.1331 29.7817L8.30493 28.7262L5.59084 33.4271L7.41899 34.4826L10.1331 29.7817Z" fill="#FFD42A"/>
<path fill-rule="evenodd" clip-rule="evenodd" d="M25.6262 36.9289L22.9086 41.6279L20.1911 46.3268L21.2378 41.0005L22.2844 35.6742L23.9553 36.3016L25.6262 36.9289Z" fill="#FFD42A"/>
<path d="M25.6574 36.8736L21.4788 34.4611L20.4233 36.2892L24.6019 38.7017L25.6574 36.8736Z" fill="#FFD42A"/>
<path d="M26.0059 30.8419L24.1777 29.7864L21.4636 34.4873L23.2918 35.5428L26.0059 30.8419Z" fill="#FFD42A"/>
<path fill-rule="evenodd" clip-rule="evenodd" d="M18.5616 0.93335C22.6537 0.93335 26.1605 3.25013 28.0248 6.58911C29.0744 5.80303 30.415 5.29434 31.8861 5.29434C35.2296 5.29434 37.9431 7.73648 37.9431 10.7456C37.9431 11.4213 37.8147 12.056 37.5647 12.6535C41.3673 14.182 44.0002 17.6446 44.0002 21.648C44.0002 27.084 39.1376 31.4602 33.0975 31.4602H11.2931C5.25298 31.4602 0.390381 27.084 0.390381 21.648C0.390381 17.3415 3.46251 13.7089 7.73394 12.3809C7.73394 12.1958 7.6588 12.0245 7.6588 11.836C7.6588 5.81779 12.5433 0.93335 18.5616 0.93335Z" fill="#808080"/>
<path fill-rule="evenodd" clip-rule="evenodd" d="M20.394 32.846L14.9589 42.2439L9.52379 51.6418L11.6171 40.9892L13.7104 30.3365L17.0522 31.5913L20.394 32.846Z" fill="#FFD42A"/>
<path d="M20.4561 32.7356L12.0989 27.9105L9.98792 31.5668L18.3451 36.3919L20.4561 32.7356Z" fill="#FFD42A"/>
<path d="M21.1529 20.6717L17.4966 18.5608L12.0684 27.9627L15.7247 30.0736L21.1529 20.6717Z" fill="#FFD42A"/>
<path fill-rule="evenodd" clip-rule="evenodd" d="M17.8341 34.3676C17.8341 35.1704 17.1832 35.8213 16.3804 35.8213C15.5776 35.8213 14.9268 35.1704 14.9268 34.3676C14.9268 33.5648 15.5776 32.9139 16.3804 32.9139C17.1832 32.9139 17.8341 33.5648 17.8341 34.3676Z" fill="#B0EFFF"/>
<path fill-rule="evenodd" clip-rule="evenodd" d="M26.5562 34.3676C26.5562 35.1704 25.9054 35.8213 25.1026 35.8213C24.2997 35.8213 23.6489 35.1704 23.6489 34.3676C23.6489 33.5648 24.2997 32.9139 25.1026 32.9139C25.9054 32.9139 26.5562 33.5648 26.5562 34.3676Z" fill="#B0EFFF"/>
<path fill-rule="evenodd" clip-rule="evenodd" d="M35.2779 34.3676C35.2779 35.1704 34.6271 35.8213 33.8243 35.8213C33.0214 35.8213 32.3706 35.1704 32.3706 34.3676C32.3706 33.5648 33.0214 32.9139 33.8243 32.9139C34.6271 32.9139 35.2779 33.5648 35.2779 34.3676Z" fill="#B0EFFF"/>
<path fill-rule="evenodd" clip-rule="evenodd" d="M14.9271 40.1822C14.9271 40.985 14.2763 41.6358 13.4734 41.6358C12.6706 41.6358 12.0198 40.985 12.0198 40.1822C12.0198 39.3793 12.6706 38.7285 13.4734 38.7285C14.2763 38.7285 14.9271 39.3793 14.9271 40.1822Z" fill="#B0EFFF"/>
<path fill-rule="evenodd" clip-rule="evenodd" d="M23.6488 40.1822C23.6488 40.985 22.9979 41.6358 22.1951 41.6358C21.3923 41.6358 20.7415 40.985 20.7415 40.1822C20.7415 39.3793 21.3923 38.7285 22.1951 38.7285C22.9979 38.7285 23.6488 39.3793 23.6488 40.1822Z" fill="#B0EFFF"/>
<path fill-rule="evenodd" clip-rule="evenodd" d="M32.3709 40.1822C32.3709 40.985 31.7201 41.6358 30.9173 41.6358C30.1144 41.6358 29.4636 40.985 29.4636 40.1822C29.4636 39.3793 30.1144 38.7285 30.9173 38.7285C31.7201 38.7285 32.3709 39.3793 32.3709 40.1822Z" fill="#B0EFFF"/>
<path fill-rule="evenodd" clip-rule="evenodd" d="M12.0194 45.9969C12.0194 46.7997 11.3686 47.4505 10.5657 47.4505C9.76288 47.4505 9.11206 46.7997 9.11206 45.9969C9.11206 45.194 9.76288 44.5432 10.5657 44.5432C11.3686 44.5432 12.0194 45.194 12.0194 45.9969Z" fill="#B0EFFF"/>
<path fill-rule="evenodd" clip-rule="evenodd" d="M20.7415 45.9969C20.7415 46.7997 20.0907 47.4505 19.2879 47.4505C18.4851 47.4505 17.8342 46.7997 17.8342 45.9969C17.8342 45.194 18.4851 44.5432 19.2879 44.5432C20.0907 44.5432 20.7415 45.194 20.7415 45.9969Z" fill="#B0EFFF"/>
<path fill-rule="evenodd" clip-rule="evenodd" d="M29.4635 45.9969C29.4635 46.7997 28.8126 47.4505 28.0098 47.4505C27.207 47.4505 26.5562 46.7997 26.5562 45.9969C26.5562 45.194 27.207 44.5432 28.0098 44.5432C28.8126 44.5432 29.4635 45.194 29.4635 45.9969Z" fill="#B0EFFF"/>
</svg>
