<svg width="44" height="48" viewBox="0 0 44 48" fill="none" xmlns="http://www.w3.org/2000/svg">
<path fill-rule="evenodd" clip-rule="evenodd" d="M18.3338 0.93335C22.4625 0.93335 26.0007 3.27087 27.8817 6.63972C28.9407 5.84661 30.2932 5.33336 31.7775 5.33336C35.1509 5.33336 37.8888 7.79736 37.8888 10.8334C37.8888 11.5152 37.7592 12.1555 37.5069 12.7583C41.3436 14.3006 44 17.7942 44 21.8334C44 27.318 39.0939 31.7333 32.9998 31.7333H11.0002C4.90611 31.7333 0 27.318 0 21.8334C0 17.4884 3.09962 13.8232 7.40927 12.4834C7.40927 12.2966 7.33346 12.1237 7.33346 11.9336C7.33346 5.8615 12.2616 0.93335 18.3338 0.93335Z" fill="#808080"/>
<path fill-rule="evenodd" clip-rule="evenodd" d="M17.5998 34.6667C17.5998 35.4768 16.9432 36.1334 16.1332 36.1334C15.3232 36.1334 14.6665 35.4768 14.6665 34.6667C14.6665 33.8567 15.3232 33.2001 16.1332 33.2001C16.9432 33.2001 17.5998 33.8567 17.5998 34.6667Z" fill="#B0EFFF"/>
<path fill-rule="evenodd" clip-rule="evenodd" d="M26.4001 34.6667C26.4001 35.4768 25.7435 36.1334 24.9335 36.1334C24.1234 36.1334 23.4668 35.4768 23.4668 34.6667C23.4668 33.8567 24.1234 33.2001 24.9335 33.2001C25.7435 33.2001 26.4001 33.8567 26.4001 34.6667Z" fill="#B0EFFF"/>
<path fill-rule="evenodd" clip-rule="evenodd" d="M35.1999 34.6667C35.1999 35.4768 34.5433 36.1334 33.7333 36.1334C32.9232 36.1334 32.2666 35.4768 32.2666 34.6667C32.2666 33.8567 32.9232 33.2001 33.7333 33.2001C34.5433 33.2001 35.1999 33.8567 35.1999 34.6667Z" fill="#B0EFFF"/>
<path fill-rule="evenodd" clip-rule="evenodd" d="M14.6667 40.5334C14.6667 41.3435 14.0101 42.0001 13.2001 42.0001C12.39 42.0001 11.7334 41.3435 11.7334 40.5334C11.7334 39.7234 12.39 39.0668 13.2001 39.0668C14.0101 39.0668 14.6667 39.7234 14.6667 40.5334Z" fill="#B0EFFF"/>
<path fill-rule="evenodd" clip-rule="evenodd" d="M23.4665 40.5334C23.4665 41.3435 22.8099 42.0001 21.9999 42.0001C21.1899 42.0001 20.5332 41.3435 20.5332 40.5334C20.5332 39.7234 21.1899 39.0668 21.9999 39.0668C22.8099 39.0668 23.4665 39.7234 23.4665 40.5334Z" fill="#B0EFFF"/>
<path fill-rule="evenodd" clip-rule="evenodd" d="M32.2668 40.5334C32.2668 41.3435 31.6102 42.0001 30.8002 42.0001C29.9901 42.0001 29.3335 41.3435 29.3335 40.5334C29.3335 39.7234 29.9901 39.0668 30.8002 39.0668C31.6102 39.0668 32.2668 39.7234 32.2668 40.5334Z" fill="#B0EFFF"/>
<path fill-rule="evenodd" clip-rule="evenodd" d="M11.7331 46.4001C11.7331 47.2102 11.0765 47.8668 10.2665 47.8668C9.45645 47.8668 8.7998 47.2102 8.7998 46.4001C8.7998 45.5901 9.45645 44.9335 10.2665 44.9335C11.0765 44.9335 11.7331 45.5901 11.7331 46.4001Z" fill="#B0EFFF"/>
<path fill-rule="evenodd" clip-rule="evenodd" d="M20.5334 46.4001C20.5334 47.2102 19.8768 47.8668 19.0668 47.8668C18.2567 47.8668 17.6001 47.2102 17.6001 46.4001C17.6001 45.5901 18.2567 44.9335 19.0668 44.9335C19.8768 44.9335 20.5334 45.5901 20.5334 46.4001Z" fill="#B0EFFF"/>
<path fill-rule="evenodd" clip-rule="evenodd" d="M29.3332 46.4001C29.3332 47.2102 28.6766 47.8668 27.8666 47.8668C27.0565 47.8668 26.3999 47.2102 26.3999 46.4001C26.3999 45.5901 27.0565 44.9335 27.8666 44.9335C28.6766 44.9335 29.3332 45.5901 29.3332 46.4001Z" fill="#B0EFFF"/>
</svg>
