<svg width="44" height="54" viewBox="0 0 44 54" fill="none" xmlns="http://www.w3.org/2000/svg">
<path fill-rule="evenodd" clip-rule="evenodd" d="M30.9169 29.3164C30.9169 37.6399 24.4087 44.3874 16.3803 44.3874C8.35201 44.3874 1.84375 37.6399 1.84375 29.3164C1.84375 20.9929 8.35201 14.2454 16.3803 14.2454C24.4087 14.2454 30.9169 20.9929 30.9169 29.3164Z" fill="#CCCCCC"/>
<path fill-rule="evenodd" clip-rule="evenodd" d="M9.75338 35.7131L7.03583 40.4121L4.31829 45.111L5.36496 39.7847L6.41162 34.4584L8.0825 35.0857L9.75338 35.7131Z" fill="#FFD42A"/>
<path d="M9.78457 35.6578L5.60596 33.2452L4.55048 35.0734L8.72909 37.4859L9.78457 35.6578Z" fill="#FFD42A"/>
<path d="M10.1331 29.6259L8.30493 28.5704L5.59084 33.2714L7.41899 34.3269L10.1331 29.6259Z" fill="#FFD42A"/>
<path fill-rule="evenodd" clip-rule="evenodd" d="M25.6262 36.7732L22.9086 41.4721L20.1911 46.1711L21.2378 40.8447L22.2844 35.5184L23.9553 36.1458L25.6262 36.7732Z" fill="#FFD42A"/>
<path d="M25.6574 36.7178L21.4788 34.3053L20.4233 36.1334L24.6019 38.546L25.6574 36.7178Z" fill="#FFD42A"/>
<path d="M26.0059 30.6861L24.1777 29.6306L21.4636 34.3316L23.2918 35.387L26.0059 30.6861Z" fill="#FFD42A"/>
<path fill-rule="evenodd" clip-rule="evenodd" d="M18.5616 0.777588C22.6537 0.777588 26.1605 3.09437 28.0248 6.43335C29.0744 5.64727 30.415 5.13858 31.8861 5.13858C35.2296 5.13858 37.9431 7.58072 37.9431 10.5898C37.9431 11.2656 37.8147 11.9003 37.5647 12.4977C41.3673 14.0263 44.0002 17.4889 44.0002 21.4923C44.0002 26.9282 39.1376 31.3044 33.0975 31.3044H11.2931C5.25298 31.3044 0.390381 26.9282 0.390381 21.4923C0.390381 17.1858 3.46251 13.5531 7.73394 12.2252C7.73394 12.04 7.6588 11.8687 7.6588 11.6802C7.6588 5.66203 12.5433 0.777588 18.5616 0.777588Z" fill="#B0EFFF"/>
<path fill-rule="evenodd" clip-rule="evenodd" d="M20.394 32.6903L14.9589 42.0882L9.52379 51.486L11.6171 40.8334L13.7104 30.1808L17.0522 31.4355L20.394 32.6903Z" fill="#FFD42A"/>
<path d="M20.4561 32.5798L12.0989 27.7548L9.98792 31.411L18.3451 36.2361L20.4561 32.5798Z" fill="#FFD42A"/>
<path d="M21.1529 20.516L17.4966 18.405L12.0684 27.8069L15.7247 29.9179L21.1529 20.516Z" fill="#FFD42A"/>
<path fill-rule="evenodd" clip-rule="evenodd" d="M17.8341 34.2118C17.8341 35.0147 17.1832 35.6655 16.3804 35.6655C15.5776 35.6655 14.9268 35.0147 14.9268 34.2118C14.9268 33.409 15.5776 32.7582 16.3804 32.7582C17.1832 32.7582 17.8341 33.409 17.8341 34.2118Z" fill="#B0EFFF"/>
<path fill-rule="evenodd" clip-rule="evenodd" d="M26.5562 34.2118C26.5562 35.0147 25.9054 35.6655 25.1026 35.6655C24.2997 35.6655 23.6489 35.0147 23.6489 34.2118C23.6489 33.409 24.2997 32.7582 25.1026 32.7582C25.9054 32.7582 26.5562 33.409 26.5562 34.2118Z" fill="#B0EFFF"/>
<path fill-rule="evenodd" clip-rule="evenodd" d="M35.2779 34.2118C35.2779 35.0147 34.6271 35.6655 33.8243 35.6655C33.0214 35.6655 32.3706 35.0147 32.3706 34.2118C32.3706 33.409 33.0214 32.7582 33.8243 32.7582C34.6271 32.7582 35.2779 33.409 35.2779 34.2118Z" fill="#B0EFFF"/>
<path fill-rule="evenodd" clip-rule="evenodd" d="M14.9271 40.0264C14.9271 40.8292 14.2763 41.4801 13.4734 41.4801C12.6706 41.4801 12.0198 40.8292 12.0198 40.0264C12.0198 39.2236 12.6706 38.5728 13.4734 38.5728C14.2763 38.5728 14.9271 39.2236 14.9271 40.0264Z" fill="#B0EFFF"/>
<path fill-rule="evenodd" clip-rule="evenodd" d="M23.6488 40.0264C23.6488 40.8292 22.9979 41.4801 22.1951 41.4801C21.3923 41.4801 20.7415 40.8292 20.7415 40.0264C20.7415 39.2236 21.3923 38.5728 22.1951 38.5728C22.9979 38.5728 23.6488 39.2236 23.6488 40.0264Z" fill="#B0EFFF"/>
<path fill-rule="evenodd" clip-rule="evenodd" d="M32.3709 40.0264C32.3709 40.8292 31.7201 41.4801 30.9173 41.4801C30.1144 41.4801 29.4636 40.8292 29.4636 40.0264C29.4636 39.2236 30.1144 38.5728 30.9173 38.5728C31.7201 38.5728 32.3709 39.2236 32.3709 40.0264Z" fill="#B0EFFF"/>
<path fill-rule="evenodd" clip-rule="evenodd" d="M12.0194 45.8411C12.0194 46.6439 11.3686 47.2948 10.5657 47.2948C9.76288 47.2948 9.11206 46.6439 9.11206 45.8411C9.11206 45.0383 9.76288 44.3875 10.5657 44.3875C11.3686 44.3875 12.0194 45.0383 12.0194 45.8411Z" fill="#B0EFFF"/>
<path fill-rule="evenodd" clip-rule="evenodd" d="M20.7415 45.8411C20.7415 46.6439 20.0907 47.2948 19.2879 47.2948C18.4851 47.2948 17.8342 46.6439 17.8342 45.8411C17.8342 45.0383 18.4851 44.3875 19.2879 44.3875C20.0907 44.3875 20.7415 45.0383 20.7415 45.8411Z" fill="#B0EFFF"/>
<path fill-rule="evenodd" clip-rule="evenodd" d="M29.4635 45.8411C29.4635 46.6439 28.8126 47.2948 28.0098 47.2948C27.207 47.2948 26.5562 46.6439 26.5562 45.8411C26.5562 45.0383 27.207 44.3875 28.0098 44.3875C28.8126 44.3875 29.4635 45.0383 29.4635 45.8411Z" fill="#B0EFFF"/>
</svg>
