<svg width="46" height="26" viewBox="0 0 46 26" fill="none" xmlns="http://www.w3.org/2000/svg">
<path d="M1 13.1781C5.16189 10.1563 10.6627 9.05613 15.6667 10.2447C20.8007 11.4642 25.1993 14.8919 30.3333 16.1114C35.3373 17.3 40.8381 16.1998 45 13.1781" stroke="#B0EFFF" stroke-width="0.755216"/>
<path d="M1 4.37801C5.16189 1.35625 10.6627 0.256086 15.6667 1.44468C20.8008 2.66418 25.1992 6.09184 30.3333 7.31134C35.3373 8.49993 40.8381 7.39977 45 4.37801" stroke="#B0EFFF" stroke-width="0.755216"/>
<path d="M1 21.978C5.16189 18.9562 10.6627 17.8561 15.6667 19.0447C20.8008 20.2642 25.1992 23.6918 30.3333 24.9113C35.3373 26.0999 40.8381 24.9997 45 21.978" stroke="#B0EFFF" stroke-width="0.755216"/>
</svg>
