<svg width="44" height="45" viewBox="0 0 44 45" fill="none" xmlns="http://www.w3.org/2000/svg">
<path fill-rule="evenodd" clip-rule="evenodd" d="M30.7052 29.0902C30.7052 37.4121 24.1981 44.1584 16.1713 44.1584C8.14448 44.1584 1.63745 37.4121 1.63745 29.0902C1.63745 20.7682 8.14448 14.022 16.1713 14.022C24.1981 14.022 30.7052 20.7682 30.7052 29.0902Z" fill="#CCCCCC"/>
<path fill-rule="evenodd" clip-rule="evenodd" d="M18.3338 0.327515C22.4625 0.327515 26.0007 2.66503 27.8817 6.03388C28.9407 5.24077 30.2932 4.72753 31.7775 4.72753C35.1509 4.72753 37.8888 7.19152 37.8888 10.2275C37.8888 10.9093 37.7592 11.5497 37.5069 12.1525C41.3436 13.6947 44 17.1883 44 21.2276C44 26.7122 39.0939 31.1275 32.9998 31.1275H11.0002C4.90611 31.1275 0 26.7122 0 21.2276C0 16.8825 3.09962 13.2174 7.40927 11.8775C7.40927 11.6907 7.33346 11.5179 7.33346 11.3277C7.33346 5.25566 12.2616 0.327515 18.3338 0.327515Z" fill="#808080"/>
<path fill-rule="evenodd" clip-rule="evenodd" d="M13.2112 34.4993L13.2377 34.5594L13.303 34.5522L13.2642 34.6052L13.303 34.6583L13.2377 34.6511L13.2112 34.7112L13.1847 34.6511L13.1194 34.6583L13.1582 34.6052L13.1194 34.5522L13.1847 34.5594L13.2112 34.4993Z" fill="#B0EFFF" stroke="#B0EFFF" stroke-width="0.8"/>
<path fill-rule="evenodd" clip-rule="evenodd" d="M30.6516 34.4993L30.6781 34.5594L30.7434 34.5522L30.7046 34.6052L30.7434 34.6583L30.6781 34.6511L30.6516 34.7112L30.6251 34.6511L30.5598 34.6583L30.5986 34.6052L30.5598 34.5522L30.6251 34.5594L30.6516 34.4993Z" fill="#B0EFFF" stroke="#B0EFFF" stroke-width="0.8"/>
<path fill-rule="evenodd" clip-rule="evenodd" d="M11.7577 38.8595L11.7889 38.9226L11.8586 38.9328L11.8082 38.9819L11.8201 39.0513L11.7578 39.0186L11.6955 39.0513L11.7074 38.9819L11.657 38.9328L11.7266 38.9226L11.7577 38.8595Z" fill="#B0EFFF" stroke="#B0EFFF" stroke-width="0.8"/>
<path fill-rule="evenodd" clip-rule="evenodd" d="M10.3042 43.2196L10.3307 43.2797L10.396 43.2726L10.3572 43.3256L10.396 43.3786L10.3307 43.3715L10.3042 43.4316L10.2777 43.3715L10.2124 43.3786L10.2512 43.3256L10.2124 43.2726L10.2777 43.2797L10.3042 43.2196Z" fill="#B0EFFF" stroke="#B0EFFF" stroke-width="0.8"/>
<path fill-rule="evenodd" clip-rule="evenodd" d="M29.1982 38.8595L29.2293 38.9226L29.299 38.9328L29.2486 38.9819L29.2605 39.0513L29.1982 39.0186L29.1359 39.0513L29.1478 38.9819L29.0974 38.9328L29.1671 38.9226L29.1982 38.8595Z" fill="#B0EFFF" stroke="#B0EFFF" stroke-width="0.8"/>
<path fill-rule="evenodd" clip-rule="evenodd" d="M20.478 38.8595L20.5045 38.9196L20.5698 38.9125L20.531 38.9655L20.5698 39.0185L20.5045 39.0114L20.478 39.0715L20.4515 39.0114L20.3862 39.0185L20.425 38.9655L20.3862 38.9125L20.4515 38.9196L20.478 38.8595Z" fill="#B0EFFF" stroke="#B0EFFF" stroke-width="0.8"/>
<path fill-rule="evenodd" clip-rule="evenodd" d="M21.9313 34.4993L21.9625 34.5624L22.0322 34.5726L21.9817 34.6217L21.9937 34.6911L21.9314 34.6583L21.8691 34.6911L21.881 34.6217L21.8306 34.5726L21.9002 34.5624L21.9313 34.4993Z" fill="#B0EFFF" stroke="#B0EFFF" stroke-width="0.8"/>
<path fill-rule="evenodd" clip-rule="evenodd" d="M19.0248 43.2196L19.056 43.2827L19.1257 43.2929L19.0753 43.342L19.0872 43.4114L19.0249 43.3787L18.9626 43.4114L18.9745 43.342L18.9241 43.2929L18.9937 43.2827L19.0248 43.2196Z" fill="#B0EFFF" stroke="#B0EFFF" stroke-width="0.8"/>
<path fill-rule="evenodd" clip-rule="evenodd" d="M27.7451 43.2196L27.7716 43.2797L27.8369 43.2726L27.7981 43.3256L27.8369 43.3786L27.7716 43.3715L27.7451 43.4316L27.7186 43.3715L27.6533 43.3786L27.6921 43.3256L27.6533 43.2726L27.7186 43.2797L27.7451 43.2196Z" fill="#B0EFFF" stroke="#B0EFFF" stroke-width="0.8"/>
<path fill-rule="evenodd" clip-rule="evenodd" d="M17.004 36.6794L17.0414 36.748L17.11 36.7855L17.0414 36.8229L17.004 36.8915L16.9665 36.8229L16.8979 36.7855L16.9665 36.748L17.004 36.6794Z" fill="#B0EFFF" stroke="#E6E6E6" stroke-width="0.8"/>
<path fill-rule="evenodd" clip-rule="evenodd" d="M25.826 36.9307L25.8635 36.9992L25.932 37.0367L25.8635 37.0742L25.826 37.1427L25.7885 37.0742L25.72 37.0367L25.7885 36.9992L25.826 36.9307Z" fill="#B0EFFF" stroke="#E6E6E6" stroke-width="0.8"/>
<path fill-rule="evenodd" clip-rule="evenodd" d="M15.2254 41.595L15.2629 41.6635L15.3314 41.701L15.2629 41.7385L15.2254 41.807L15.1879 41.7385L15.1194 41.701L15.1879 41.6635L15.2254 41.595Z" fill="#B0EFFF" stroke="#E6E6E6" stroke-width="0.8"/>
<path fill-rule="evenodd" clip-rule="evenodd" d="M23.9178 41.595L23.9553 41.6635L24.0238 41.701L23.9553 41.7385L23.9178 41.807L23.8803 41.7385L23.8118 41.701L23.8803 41.6635L23.9178 41.595Z" fill="#B0EFFF" stroke="#E6E6E6" stroke-width="0.8"/>
</svg>
