<svg width="44" height="54" viewBox="0 0 44 54" fill="none" xmlns="http://www.w3.org/2000/svg">
<path fill-rule="evenodd" clip-rule="evenodd" d="M9.75338 35.8205L7.03583 40.5195L4.31829 45.2184L5.36496 39.8921L6.41162 34.5658L8.0825 35.1932L9.75338 35.8205Z" fill="#FFD42A"/>
<path d="M9.78457 35.7652L5.60596 33.3527L4.55048 35.1808L8.72909 37.5933L9.78457 35.7652Z" fill="#FFD42A"/>
<path d="M10.1331 29.7333L8.30493 28.6779L5.59084 33.3788L7.41899 34.4343L10.1331 29.7333Z" fill="#FFD42A"/>
<path fill-rule="evenodd" clip-rule="evenodd" d="M25.6262 36.8806L22.9086 41.5795L20.1911 46.2785L21.2378 40.9522L22.2844 35.6259L23.9553 36.2532L25.6262 36.8806Z" fill="#FFD42A"/>
<path d="M25.6574 36.8252L21.4788 34.4127L20.4233 36.2409L24.6019 38.6534L25.6574 36.8252Z" fill="#FFD42A"/>
<path d="M26.0059 30.7935L24.1777 29.738L21.4636 34.439L23.2918 35.4945L26.0059 30.7935Z" fill="#FFD42A"/>
<path fill-rule="evenodd" clip-rule="evenodd" d="M18.5616 0.88501C22.6537 0.88501 26.1605 3.20179 28.0248 6.54077C29.0744 5.75469 30.415 5.246 31.8861 5.246C35.2296 5.246 37.9431 7.68814 37.9431 10.6972C37.9431 11.373 37.8147 12.0077 37.5647 12.6051C41.3673 14.1337 44.0002 17.5963 44.0002 21.5997C44.0002 27.0357 39.1376 31.4119 33.0975 31.4119H11.2931C5.25298 31.4119 0.390381 27.0357 0.390381 21.5997C0.390381 17.2932 3.46251 13.6605 7.73394 12.3326C7.73394 12.1475 7.6588 11.9761 7.6588 11.7877C7.6588 5.76945 12.5433 0.88501 18.5616 0.88501Z" fill="#B0EFFF"/>
<path fill-rule="evenodd" clip-rule="evenodd" d="M20.394 32.7977L14.9589 42.1956L9.52379 51.5935L11.6171 40.9408L13.7104 30.2882L17.0522 31.5429L20.394 32.7977Z" fill="#FFD42A"/>
<path d="M20.4561 32.6872L12.0989 27.8622L9.98792 31.5185L18.3451 36.3435L20.4561 32.6872Z" fill="#FFD42A"/>
<path d="M21.1529 20.6234L17.4966 18.5125L12.0684 27.9143L15.7247 30.0253L21.1529 20.6234Z" fill="#FFD42A"/>
<path fill-rule="evenodd" clip-rule="evenodd" d="M13.4845 34.7537L13.5108 34.8132L13.5755 34.8062L13.5371 34.8587L13.5755 34.9112L13.5108 34.9042L13.4845 34.9637L13.4583 34.9042L13.3936 34.9112L13.432 34.8587L13.3936 34.8062L13.4583 34.8132L13.4845 34.7537Z" fill="#B0EFFF" stroke="#B0EFFF" stroke-width="0.8"/>
<path fill-rule="evenodd" clip-rule="evenodd" d="M30.7702 34.7537L30.7964 34.8132L30.8612 34.8062L30.8227 34.8587L30.8612 34.9112L30.7964 34.9042L30.7702 34.9637L30.7439 34.9042L30.6792 34.9112L30.7177 34.8587L30.6792 34.8062L30.7439 34.8132L30.7702 34.7537Z" fill="#B0EFFF" stroke="#B0EFFF" stroke-width="0.8"/>
<path fill-rule="evenodd" clip-rule="evenodd" d="M12.0435 39.0752L12.0744 39.1378L12.1434 39.1478L12.0934 39.1965L12.1053 39.2653L12.0435 39.2328L11.9817 39.2653L11.9936 39.1965L11.9436 39.1478L12.0126 39.1378L12.0435 39.0752Z" fill="#B0EFFF" stroke="#B0EFFF" stroke-width="0.8"/>
<path fill-rule="evenodd" clip-rule="evenodd" d="M10.6032 43.3967L10.6294 43.4563L10.6942 43.4492L10.6557 43.5018L10.6942 43.5543L10.6294 43.5472L10.6032 43.6068L10.5769 43.5472L10.5122 43.5543L10.5507 43.5018L10.5122 43.4492L10.5769 43.4563L10.6032 43.3967Z" fill="#B0EFFF" stroke="#B0EFFF" stroke-width="0.8"/>
<path fill-rule="evenodd" clip-rule="evenodd" d="M29.3296 39.0752L29.3605 39.1378L29.4295 39.1478L29.3796 39.1965L29.3914 39.2653L29.3296 39.2328L29.2679 39.2653L29.2797 39.1965L29.2297 39.1478L29.2988 39.1378L29.3296 39.0752Z" fill="#B0EFFF" stroke="#B0EFFF" stroke-width="0.8"/>
<path fill-rule="evenodd" clip-rule="evenodd" d="M20.6864 39.0752L20.7127 39.1348L20.7774 39.1277L20.739 39.1802L20.7774 39.2328L20.7127 39.2257L20.6864 39.2853L20.6602 39.2257L20.5955 39.2328L20.6339 39.1802L20.5955 39.1277L20.6602 39.1348L20.6864 39.0752Z" fill="#B0EFFF" stroke="#B0EFFF" stroke-width="0.8"/>
<path fill-rule="evenodd" clip-rule="evenodd" d="M22.1272 34.7537L22.1581 34.8162L22.2271 34.8263L22.1772 34.875L22.189 34.9438L22.1272 34.9113L22.0655 34.9438L22.0773 34.875L22.0273 34.8263L22.0964 34.8162L22.1272 34.7537Z" fill="#B0EFFF" stroke="#B0EFFF" stroke-width="0.8"/>
<path fill-rule="evenodd" clip-rule="evenodd" d="M19.2459 43.3967L19.2768 43.4593L19.3458 43.4694L19.2958 43.5181L19.3076 43.5868L19.2459 43.5544L19.1841 43.5868L19.196 43.5181L19.146 43.4694L19.215 43.4593L19.2459 43.3967Z" fill="#B0EFFF" stroke="#B0EFFF" stroke-width="0.8"/>
<path fill-rule="evenodd" clip-rule="evenodd" d="M27.8888 43.3967L27.9151 43.4563L27.9798 43.4492L27.9414 43.5018L27.9798 43.5543L27.9151 43.5472L27.8888 43.6068L27.8626 43.5472L27.7979 43.5543L27.8363 43.5018L27.7979 43.4492L27.8626 43.4563L27.8888 43.3967Z" fill="#B0EFFF" stroke="#B0EFFF" stroke-width="0.8"/>
<path fill-rule="evenodd" clip-rule="evenodd" d="M17.2435 36.9146L17.2806 36.9825L17.3486 37.0196L17.2806 37.0568L17.2435 37.1247L17.2063 37.0568L17.1384 37.0196L17.2063 36.9825L17.2435 36.9146Z" fill="#B0EFFF" stroke="#E6E6E6" stroke-width="0.8"/>
<path fill-rule="evenodd" clip-rule="evenodd" d="M25.9869 37.1636L26.0241 37.2315L26.092 37.2686L26.0241 37.3058L25.9869 37.3737L25.9498 37.3058L25.8818 37.2686L25.9498 37.2315L25.9869 37.1636Z" fill="#B0EFFF" stroke="#E6E6E6" stroke-width="0.8"/>
<path fill-rule="evenodd" clip-rule="evenodd" d="M15.4806 41.7865L15.5177 41.8544L15.5856 41.8916L15.5177 41.9287L15.4806 41.9966L15.4434 41.9287L15.3755 41.8916L15.4434 41.8544L15.4806 41.7865Z" fill="#B0EFFF" stroke="#E6E6E6" stroke-width="0.8"/>
<path fill-rule="evenodd" clip-rule="evenodd" d="M24.0955 41.7865L24.1327 41.8544L24.2006 41.8916L24.1327 41.9287L24.0955 41.9966L24.0584 41.9287L23.9905 41.8916L24.0584 41.8544L24.0955 41.7865Z" fill="#B0EFFF" stroke="#E6E6E6" stroke-width="0.8"/>
</svg>
