<svg width="44" height="53" viewBox="0 0 44 53" fill="none" xmlns="http://www.w3.org/2000/svg">
<path fill-rule="evenodd" clip-rule="evenodd" d="M24.9265 36.3091L22.2832 40.8797L19.6399 45.4504L20.6579 40.2695L21.676 35.0886L23.3013 35.6989L24.9265 36.3091Z" fill="#FFD42A"/>
<path d="M24.9569 36.2556L20.8923 33.9089L19.8657 35.6872L23.9302 38.0338L24.9569 36.2556Z" fill="#FFD42A"/>
<path d="M25.2958 30.3884L23.5176 29.3617L20.8776 33.9343L22.6558 34.9609L25.2958 30.3884Z" fill="#FFD42A"/>
<path fill-rule="evenodd" clip-rule="evenodd" d="M9.48708 35.2781L6.84374 39.8487L4.2004 44.4194L5.21849 39.2385L6.23657 34.0576L7.86183 34.6679L9.48708 35.2781Z" fill="#FFD42A"/>
<path d="M9.5174 35.2245L5.45288 32.8778L4.42622 34.656L8.49074 37.0027L9.5174 35.2245Z" fill="#FFD42A"/>
<path d="M9.85659 29.3572L8.07837 28.3306L5.43839 32.9031L7.21661 33.9298L9.85659 29.3572Z" fill="#FFD42A"/>
<path fill-rule="evenodd" clip-rule="evenodd" d="M19.0301 0.908447C23.0469 0.908447 26.4891 3.18257 28.3191 6.46005C29.3494 5.68845 30.6652 5.18912 32.1093 5.18912C35.3912 5.18912 38.0548 7.58629 38.0548 10.54C38.0548 11.2033 37.9287 11.8263 37.6833 12.4127C41.4159 13.9131 44.0002 17.312 44.0002 21.2417C44.0002 26.5775 39.2272 30.8731 33.2983 30.8731H11.8955C5.96665 30.8731 1.1936 26.5775 1.1936 21.2417C1.1936 17.0145 4.20916 13.4487 8.40192 12.1452C8.40192 11.9635 8.32816 11.7953 8.32816 11.6103C8.32816 5.70294 13.1227 0.908447 19.0301 0.908447Z" fill="#B0EFFF"/>
<path fill-rule="evenodd" clip-rule="evenodd" d="M19.8372 32.3379L14.5505 41.4792L9.26384 50.6205L11.3 40.2587L13.3362 29.897L16.5867 31.1174L19.8372 32.3379Z" fill="#FFD42A"/>
<path d="M19.8976 32.2304L11.7686 27.5371L9.71524 31.0936L17.8443 35.7869L19.8976 32.2304Z" fill="#FFD42A"/>
<path d="M20.5755 20.4961L17.019 18.4427L11.7391 27.5879L15.2955 29.6412L20.5755 20.4961Z" fill="#FFD42A"/>
<path fill-rule="evenodd" clip-rule="evenodd" d="M18.3159 33.7269C18.3159 34.515 17.6771 35.1538 16.889 35.1538C16.101 35.1538 15.4622 34.515 15.4622 33.7269C15.4622 32.9389 16.101 32.3 16.889 32.3C17.6771 32.3 18.3159 32.9389 18.3159 33.7269Z" fill="#B0EFFF"/>
<path fill-rule="evenodd" clip-rule="evenodd" d="M26.8772 33.7269C26.8772 34.515 26.2384 35.1538 25.4503 35.1538C24.6623 35.1538 24.0234 34.515 24.0234 33.7269C24.0234 32.9389 24.6623 32.3 25.4503 32.3C26.2384 32.3 26.8772 32.9389 26.8772 33.7269Z" fill="#F2F2F2"/>
<path fill-rule="evenodd" clip-rule="evenodd" d="M35.4387 33.7269C35.4387 34.515 34.7999 35.1538 34.0118 35.1538C33.2238 35.1538 32.585 34.515 32.585 33.7269C32.585 32.9389 33.2238 32.3 34.0118 32.3C34.7999 32.3 35.4387 32.9389 35.4387 33.7269Z" fill="#B0EFFF"/>
<path fill-rule="evenodd" clip-rule="evenodd" d="M15.4619 39.4345C15.4619 40.2225 14.8231 40.8613 14.035 40.8613C13.247 40.8613 12.6082 40.2225 12.6082 39.4345C12.6082 38.6464 13.247 38.0076 14.035 38.0076C14.8231 38.0076 15.4619 38.6464 15.4619 39.4345Z" fill="#F2F2F2"/>
<path fill-rule="evenodd" clip-rule="evenodd" d="M24.0237 39.4345C24.0237 40.2225 23.3849 40.8613 22.5968 40.8613C21.8088 40.8613 21.1699 40.2225 21.1699 39.4345C21.1699 38.6464 21.8088 38.0076 22.5968 38.0076C23.3849 38.0076 24.0237 38.6464 24.0237 39.4345Z" fill="#B0EFFF"/>
<path fill-rule="evenodd" clip-rule="evenodd" d="M32.5847 39.4345C32.5847 40.2225 31.9459 40.8613 31.1578 40.8613C30.3698 40.8613 29.731 40.2225 29.731 39.4345C29.731 38.6464 30.3698 38.0076 31.1578 38.0076C31.9459 38.0076 32.5847 38.6464 32.5847 39.4345Z" fill="#F2F2F2"/>
<path fill-rule="evenodd" clip-rule="evenodd" d="M12.6084 45.1421C12.6084 45.9301 11.9696 46.569 11.1815 46.569C10.3935 46.569 9.75464 45.9301 9.75464 45.1421C9.75464 44.354 10.3935 43.7152 11.1815 43.7152C11.9696 43.7152 12.6084 44.354 12.6084 45.1421Z" fill="#B0EFFF"/>
<path fill-rule="evenodd" clip-rule="evenodd" d="M21.1697 45.1421C21.1697 45.9301 20.5309 46.569 19.7428 46.569C18.9548 46.569 18.3159 45.9301 18.3159 45.1421C18.3159 44.354 18.9548 43.7152 19.7428 43.7152C20.5309 43.7152 21.1697 44.354 21.1697 45.1421Z" fill="#F2F2F2"/>
<path fill-rule="evenodd" clip-rule="evenodd" d="M29.7312 45.1421C29.7312 45.9301 29.0924 46.569 28.3043 46.569C27.5163 46.569 26.8774 45.9301 26.8774 45.1421C26.8774 44.354 27.5163 43.7152 28.3043 43.7152C29.0924 43.7152 29.7312 44.354 29.7312 45.1421Z" fill="#B0EFFF"/>
</svg>
