<svg width="44" height="46" viewBox="0 0 44 46" fill="none" xmlns="http://www.w3.org/2000/svg">
<path fill-rule="evenodd" clip-rule="evenodd" d="M18.3338 0.975098C22.4625 0.975098 26.0007 3.31261 27.8817 6.68147C28.9407 5.88835 30.2932 5.37511 31.7775 5.37511C35.1509 5.37511 37.8888 7.8391 37.8888 10.8751C37.8888 11.5569 37.7592 12.1973 37.5069 12.8001C41.3436 14.3423 44 17.8359 44 21.8751C44 27.3597 39.0939 31.7751 32.9998 31.7751H11.0002C4.90611 31.7751 0 27.3597 0 21.8751C0 17.5301 3.09962 13.8649 7.40927 12.5251C7.40927 12.3383 7.33346 12.1655 7.33346 11.9753C7.33346 5.90325 12.2616 0.975098 18.3338 0.975098Z" fill="#B0EFFF"/>
<path fill-rule="evenodd" clip-rule="evenodd" d="M13.2112 35.1469L13.2377 35.2069L13.303 35.1998L13.2642 35.2528L13.303 35.3058L13.2377 35.2987L13.2112 35.3588L13.1847 35.2987L13.1194 35.3058L13.1582 35.2528L13.1194 35.1998L13.1847 35.2069L13.2112 35.1469Z" fill="#B0EFFF" stroke="#B0EFFF" stroke-width="0.8"/>
<path fill-rule="evenodd" clip-rule="evenodd" d="M30.6516 35.1469L30.6781 35.2069L30.7434 35.1998L30.7046 35.2528L30.7434 35.3058L30.6781 35.2987L30.6516 35.3588L30.6251 35.2987L30.5598 35.3058L30.5986 35.2528L30.5598 35.1998L30.6251 35.2069L30.6516 35.1469Z" fill="#B0EFFF" stroke="#B0EFFF" stroke-width="0.8"/>
<path fill-rule="evenodd" clip-rule="evenodd" d="M11.7577 39.5071L11.7889 39.5702L11.8586 39.5804L11.8082 39.6295L11.8201 39.6989L11.7578 39.6661L11.6955 39.6989L11.7074 39.6295L11.657 39.5804L11.7266 39.5702L11.7577 39.5071Z" fill="#B0EFFF" stroke="#B0EFFF" stroke-width="0.8"/>
<path fill-rule="evenodd" clip-rule="evenodd" d="M10.3042 43.8672L10.3307 43.9273L10.396 43.9202L10.3572 43.9732L10.396 44.0262L10.3307 44.0191L10.3042 44.0791L10.2777 44.0191L10.2124 44.0262L10.2512 43.9732L10.2124 43.9202L10.2777 43.9273L10.3042 43.8672Z" fill="#B0EFFF" stroke="#B0EFFF" stroke-width="0.8"/>
<path fill-rule="evenodd" clip-rule="evenodd" d="M29.1982 39.5071L29.2293 39.5702L29.299 39.5804L29.2486 39.6295L29.2605 39.6989L29.1982 39.6661L29.1359 39.6989L29.1478 39.6295L29.0974 39.5804L29.1671 39.5702L29.1982 39.5071Z" fill="#B0EFFF" stroke="#B0EFFF" stroke-width="0.8"/>
<path fill-rule="evenodd" clip-rule="evenodd" d="M20.478 39.5071L20.5045 39.5672L20.5698 39.5601L20.531 39.6131L20.5698 39.6661L20.5045 39.6589L20.478 39.719L20.4515 39.6589L20.3862 39.6661L20.425 39.6131L20.3862 39.5601L20.4515 39.5672L20.478 39.5071Z" fill="#B0EFFF" stroke="#B0EFFF" stroke-width="0.8"/>
<path fill-rule="evenodd" clip-rule="evenodd" d="M21.9313 35.1469L21.9625 35.21L22.0322 35.2201L21.9817 35.2693L21.9937 35.3387L21.9314 35.3059L21.8691 35.3387L21.881 35.2693L21.8306 35.2201L21.9002 35.21L21.9313 35.1469Z" fill="#B0EFFF" stroke="#B0EFFF" stroke-width="0.8"/>
<path fill-rule="evenodd" clip-rule="evenodd" d="M19.0248 43.8672L19.056 43.9303L19.1257 43.9405L19.0753 43.9896L19.0872 44.059L19.0249 44.0262L18.9626 44.059L18.9745 43.9896L18.9241 43.9405L18.9937 43.9303L19.0248 43.8672Z" fill="#B0EFFF" stroke="#B0EFFF" stroke-width="0.8"/>
<path fill-rule="evenodd" clip-rule="evenodd" d="M27.7451 43.8672L27.7716 43.9273L27.8369 43.9202L27.7981 43.9732L27.8369 44.0262L27.7716 44.0191L27.7451 44.0791L27.7186 44.0191L27.6533 44.0262L27.6921 43.9732L27.6533 43.9202L27.7186 43.9273L27.7451 43.8672Z" fill="#B0EFFF" stroke="#B0EFFF" stroke-width="0.8"/>
<path fill-rule="evenodd" clip-rule="evenodd" d="M17.004 37.327L17.0414 37.3956L17.11 37.433L17.0414 37.4705L17.004 37.539L16.9665 37.4705L16.8979 37.433L16.9665 37.3956L17.004 37.327Z" fill="#B0EFFF" stroke="#E6E6E6" stroke-width="0.8"/>
<path fill-rule="evenodd" clip-rule="evenodd" d="M25.826 37.5782L25.8635 37.6468L25.932 37.6843L25.8635 37.7217L25.826 37.7903L25.7885 37.7217L25.72 37.6843L25.7885 37.6468L25.826 37.5782Z" fill="#B0EFFF" stroke="#E6E6E6" stroke-width="0.8"/>
<path fill-rule="evenodd" clip-rule="evenodd" d="M15.2254 42.2426L15.2629 42.3111L15.3314 42.3486L15.2629 42.386L15.2254 42.4546L15.1879 42.386L15.1194 42.3486L15.1879 42.3111L15.2254 42.2426Z" fill="#B0EFFF" stroke="#E6E6E6" stroke-width="0.8"/>
<path fill-rule="evenodd" clip-rule="evenodd" d="M23.9178 42.2426L23.9553 42.3111L24.0238 42.3486L23.9553 42.386L23.9178 42.4546L23.8803 42.386L23.8118 42.3486L23.8803 42.3111L23.9178 42.2426Z" fill="#B0EFFF" stroke="#E6E6E6" stroke-width="0.8"/>
</svg>
