<svg width="44" height="53" viewBox="0 0 44 53" fill="none" xmlns="http://www.w3.org/2000/svg">
<path fill-rule="evenodd" clip-rule="evenodd" d="M9.75338 34.9355L7.03583 39.6345L4.31829 44.3334L5.36496 39.0071L6.41162 33.6808L8.0825 34.3082L9.75338 34.9355Z" fill="#FFD42A"/>
<path d="M9.78457 34.8802L5.60596 32.4677L4.55048 34.2958L8.72909 36.7083L9.78457 34.8802Z" fill="#FFD42A"/>
<path d="M10.1331 28.8483L8.30493 27.7928L5.59084 32.4938L7.41899 33.5493L10.1331 28.8483Z" fill="#FFD42A"/>
<path fill-rule="evenodd" clip-rule="evenodd" d="M25.6262 35.9956L22.9086 40.6945L20.1911 45.3935L21.2378 40.0672L22.2844 34.7408L23.9553 35.3682L25.6262 35.9956Z" fill="#FFD42A"/>
<path d="M25.6574 35.9402L21.4788 33.5277L20.4233 35.3559L24.6019 37.7684L25.6574 35.9402Z" fill="#FFD42A"/>
<path d="M26.0059 29.9085L24.1777 28.853L21.4636 33.554L23.2918 34.6094L26.0059 29.9085Z" fill="#FFD42A"/>
<path fill-rule="evenodd" clip-rule="evenodd" d="M18.5616 0C22.6537 0 26.1605 2.31679 28.0248 5.65576C29.0744 4.86968 30.415 4.36099 31.8861 4.36099C35.2296 4.36099 37.9431 6.80313 37.9431 9.81221C37.9431 10.488 37.8147 11.1227 37.5647 11.7201C41.3673 13.2487 44.0002 16.7113 44.0002 20.7147C44.0002 26.1507 39.1376 30.5268 33.0975 30.5268H11.2931C5.25298 30.5268 0.390381 26.1507 0.390381 20.7147C0.390381 16.4082 3.46251 12.7755 7.73394 11.4476C7.73394 11.2625 7.6588 11.0911 7.6588 10.9027C7.6588 4.88444 12.5433 0 18.5616 0Z" fill="#808080"/>
<path fill-rule="evenodd" clip-rule="evenodd" d="M20.394 31.9127L14.9589 41.3106L9.52379 50.7085L11.6171 40.0558L13.7104 29.4032L17.0522 30.6579L20.394 31.9127Z" fill="#FFD42A"/>
<path d="M20.4561 31.8022L12.0989 26.9772L9.98792 30.6335L18.3451 35.4585L20.4561 31.8022Z" fill="#FFD42A"/>
<path d="M21.1529 19.7384L17.4966 17.6274L12.0684 27.0293L15.7247 29.1403L21.1529 19.7384Z" fill="#FFD42A"/>
<path fill-rule="evenodd" clip-rule="evenodd" d="M13.4845 33.8687L13.5108 33.9282L13.5755 33.9212L13.5371 33.9737L13.5755 34.0262L13.5108 34.0192L13.4845 34.0787L13.4583 34.0192L13.3936 34.0262L13.432 33.9737L13.3936 33.9212L13.4583 33.9282L13.4845 33.8687Z" fill="#B0EFFF" stroke="#B0EFFF" stroke-width="0.8"/>
<path fill-rule="evenodd" clip-rule="evenodd" d="M30.7702 33.8687L30.7964 33.9282L30.8612 33.9212L30.8227 33.9737L30.8612 34.0262L30.7964 34.0192L30.7702 34.0787L30.7439 34.0192L30.6792 34.0262L30.7177 33.9737L30.6792 33.9212L30.7439 33.9282L30.7702 33.8687Z" fill="#B0EFFF" stroke="#B0EFFF" stroke-width="0.8"/>
<path fill-rule="evenodd" clip-rule="evenodd" d="M12.0435 38.1902L12.0744 38.2527L12.1434 38.2628L12.0934 38.3115L12.1053 38.3803L12.0435 38.3478L11.9817 38.3803L11.9936 38.3115L11.9436 38.2628L12.0126 38.2527L12.0435 38.1902Z" fill="#B0EFFF" stroke="#B0EFFF" stroke-width="0.8"/>
<path fill-rule="evenodd" clip-rule="evenodd" d="M10.6032 42.5117L10.6294 42.5713L10.6942 42.5642L10.6557 42.6168L10.6942 42.6693L10.6294 42.6622L10.6032 42.7218L10.5769 42.6622L10.5122 42.6693L10.5507 42.6168L10.5122 42.5642L10.5769 42.5713L10.6032 42.5117Z" fill="#B0EFFF" stroke="#B0EFFF" stroke-width="0.8"/>
<path fill-rule="evenodd" clip-rule="evenodd" d="M29.3296 38.1902L29.3605 38.2527L29.4295 38.2628L29.3796 38.3115L29.3914 38.3803L29.3296 38.3478L29.2679 38.3803L29.2797 38.3115L29.2297 38.2628L29.2988 38.2527L29.3296 38.1902Z" fill="#B0EFFF" stroke="#B0EFFF" stroke-width="0.8"/>
<path fill-rule="evenodd" clip-rule="evenodd" d="M20.6864 38.1902L20.7127 38.2497L20.7774 38.2427L20.739 38.2952L20.7774 38.3478L20.7127 38.3407L20.6864 38.4003L20.6602 38.3407L20.5955 38.3478L20.6339 38.2952L20.5955 38.2427L20.6602 38.2497L20.6864 38.1902Z" fill="#B0EFFF" stroke="#B0EFFF" stroke-width="0.8"/>
<path fill-rule="evenodd" clip-rule="evenodd" d="M22.1272 33.8687L22.1581 33.9312L22.2271 33.9413L22.1772 33.99L22.189 34.0588L22.1272 34.0263L22.0655 34.0588L22.0773 33.99L22.0273 33.9413L22.0964 33.9312L22.1272 33.8687Z" fill="#B0EFFF" stroke="#B0EFFF" stroke-width="0.8"/>
<path fill-rule="evenodd" clip-rule="evenodd" d="M19.2459 42.5117L19.2768 42.5743L19.3458 42.5844L19.2958 42.6331L19.3076 42.7018L19.2459 42.6694L19.1841 42.7018L19.196 42.6331L19.146 42.5844L19.215 42.5743L19.2459 42.5117Z" fill="#B0EFFF" stroke="#B0EFFF" stroke-width="0.8"/>
<path fill-rule="evenodd" clip-rule="evenodd" d="M27.8888 42.5117L27.9151 42.5713L27.9798 42.5642L27.9414 42.6168L27.9798 42.6693L27.9151 42.6622L27.8888 42.7218L27.8626 42.6622L27.7979 42.6693L27.8363 42.6168L27.7979 42.5642L27.8626 42.5713L27.8888 42.5117Z" fill="#B0EFFF" stroke="#B0EFFF" stroke-width="0.8"/>
<path fill-rule="evenodd" clip-rule="evenodd" d="M17.2435 36.0295L17.2806 36.0975L17.3486 36.1346L17.2806 36.1718L17.2435 36.2397L17.2063 36.1718L17.1384 36.1346L17.2063 36.0975L17.2435 36.0295Z" fill="#B0EFFF" stroke="#E6E6E6" stroke-width="0.8"/>
<path fill-rule="evenodd" clip-rule="evenodd" d="M25.9869 36.2786L26.0241 36.3465L26.092 36.3836L26.0241 36.4208L25.9869 36.4887L25.9498 36.4208L25.8818 36.3836L25.9498 36.3465L25.9869 36.2786Z" fill="#B0EFFF" stroke="#E6E6E6" stroke-width="0.8"/>
<path fill-rule="evenodd" clip-rule="evenodd" d="M15.4806 40.9015L15.5177 40.9694L15.5856 41.0066L15.5177 41.0437L15.4806 41.1116L15.4434 41.0437L15.3755 41.0066L15.4434 40.9694L15.4806 40.9015Z" fill="#B0EFFF" stroke="#E6E6E6" stroke-width="0.8"/>
<path fill-rule="evenodd" clip-rule="evenodd" d="M24.0955 40.9015L24.1327 40.9694L24.2006 41.0066L24.1327 41.0437L24.0955 41.1116L24.0584 41.0437L23.9905 41.0066L24.0584 40.9694L24.0955 40.9015Z" fill="#B0EFFF" stroke="#E6E6E6" stroke-width="0.8"/>
</svg>
