<svg width="44" height="45" viewBox="0 0 44 45" fill="none" xmlns="http://www.w3.org/2000/svg">
<path fill-rule="evenodd" clip-rule="evenodd" d="M30.7052 29.4711C30.7052 37.7931 24.1981 44.5393 16.1713 44.5393C8.14448 44.5393 1.63745 37.7931 1.63745 29.4711C1.63745 21.1492 8.14448 14.403 16.1713 14.403C24.1981 14.403 30.7052 21.1492 30.7052 29.4711Z" fill="#CCCCCC"/>
<path fill-rule="evenodd" clip-rule="evenodd" d="M18.3338 0.708496C22.4625 0.708496 26.0007 3.04601 27.8817 6.41486C28.9407 5.62175 30.2932 5.10851 31.7775 5.10851C35.1509 5.10851 37.8888 7.5725 37.8888 10.6085C37.8888 11.2903 37.7592 11.9307 37.5069 12.5335C41.3436 14.0757 44 17.5693 44 21.6085C44 27.0931 39.0939 31.5085 32.9998 31.5085H11.0002C4.90611 31.5085 0 27.0931 0 21.6085C0 17.2635 3.09962 13.5983 7.40927 12.2585C7.40927 12.0717 7.33346 11.8989 7.33346 11.7087C7.33346 5.63664 12.2616 0.708496 18.3338 0.708496Z" fill="#B0EFFF"/>
<path fill-rule="evenodd" clip-rule="evenodd" d="M13.2112 34.8802L13.2377 34.9403L13.303 34.9332L13.2642 34.9862L13.303 35.0392L13.2377 35.0321L13.2112 35.0922L13.1847 35.0321L13.1194 35.0392L13.1582 34.9862L13.1194 34.9332L13.1847 34.9403L13.2112 34.8802Z" fill="#B0EFFF" stroke="#B0EFFF" stroke-width="0.8"/>
<path fill-rule="evenodd" clip-rule="evenodd" d="M30.6516 34.8802L30.6781 34.9403L30.7434 34.9332L30.7046 34.9862L30.7434 35.0392L30.6781 35.0321L30.6516 35.0922L30.6251 35.0321L30.5598 35.0392L30.5986 34.9862L30.5598 34.9332L30.6251 34.9403L30.6516 34.8802Z" fill="#B0EFFF" stroke="#B0EFFF" stroke-width="0.8"/>
<path fill-rule="evenodd" clip-rule="evenodd" d="M11.7577 39.2405L11.7889 39.3036L11.8586 39.3138L11.8082 39.3629L11.8201 39.4323L11.7578 39.3995L11.6955 39.4323L11.7074 39.3629L11.657 39.3138L11.7266 39.3036L11.7577 39.2405Z" fill="#B0EFFF" stroke="#B0EFFF" stroke-width="0.8"/>
<path fill-rule="evenodd" clip-rule="evenodd" d="M10.3042 43.6006L10.3307 43.6607L10.396 43.6536L10.3572 43.7066L10.396 43.7596L10.3307 43.7525L10.3042 43.8125L10.2777 43.7525L10.2124 43.7596L10.2512 43.7066L10.2124 43.6536L10.2777 43.6607L10.3042 43.6006Z" fill="#B0EFFF" stroke="#B0EFFF" stroke-width="0.8"/>
<path fill-rule="evenodd" clip-rule="evenodd" d="M29.1982 39.2405L29.2293 39.3036L29.299 39.3138L29.2486 39.3629L29.2605 39.4323L29.1982 39.3995L29.1359 39.4323L29.1478 39.3629L29.0974 39.3138L29.1671 39.3036L29.1982 39.2405Z" fill="#B0EFFF" stroke="#B0EFFF" stroke-width="0.8"/>
<path fill-rule="evenodd" clip-rule="evenodd" d="M20.478 39.2405L20.5045 39.3006L20.5698 39.2935L20.531 39.3465L20.5698 39.3995L20.5045 39.3923L20.478 39.4524L20.4515 39.3923L20.3862 39.3995L20.425 39.3465L20.3862 39.2935L20.4515 39.3006L20.478 39.2405Z" fill="#B0EFFF" stroke="#B0EFFF" stroke-width="0.8"/>
<path fill-rule="evenodd" clip-rule="evenodd" d="M21.9313 34.8802L21.9625 34.9434L22.0322 34.9535L21.9817 35.0027L21.9937 35.0721L21.9314 35.0393L21.8691 35.0721L21.881 35.0027L21.8306 34.9535L21.9002 34.9434L21.9313 34.8802Z" fill="#B0EFFF" stroke="#B0EFFF" stroke-width="0.8"/>
<path fill-rule="evenodd" clip-rule="evenodd" d="M19.0248 43.6006L19.056 43.6637L19.1257 43.6739L19.0753 43.723L19.0872 43.7924L19.0249 43.7596L18.9626 43.7924L18.9745 43.723L18.9241 43.6739L18.9937 43.6637L19.0248 43.6006Z" fill="#B0EFFF" stroke="#B0EFFF" stroke-width="0.8"/>
<path fill-rule="evenodd" clip-rule="evenodd" d="M27.7451 43.6006L27.7716 43.6607L27.8369 43.6536L27.7981 43.7066L27.8369 43.7596L27.7716 43.7525L27.7451 43.8125L27.7186 43.7525L27.6533 43.7596L27.6921 43.7066L27.6533 43.6536L27.7186 43.6607L27.7451 43.6006Z" fill="#B0EFFF" stroke="#B0EFFF" stroke-width="0.8"/>
<path fill-rule="evenodd" clip-rule="evenodd" d="M17.004 37.0604L17.0414 37.129L17.11 37.1664L17.0414 37.2039L17.004 37.2724L16.9665 37.2039L16.8979 37.1664L16.9665 37.129L17.004 37.0604Z" fill="#B0EFFF" stroke="#E6E6E6" stroke-width="0.8"/>
<path fill-rule="evenodd" clip-rule="evenodd" d="M25.826 37.3116L25.8635 37.3802L25.932 37.4177L25.8635 37.4551L25.826 37.5237L25.7885 37.4551L25.72 37.4177L25.7885 37.3802L25.826 37.3116Z" fill="#B0EFFF" stroke="#E6E6E6" stroke-width="0.8"/>
<path fill-rule="evenodd" clip-rule="evenodd" d="M15.2254 41.976L15.2629 42.0445L15.3314 42.082L15.2629 42.1194L15.2254 42.188L15.1879 42.1194L15.1194 42.082L15.1879 42.0445L15.2254 41.976Z" fill="#B0EFFF" stroke="#E6E6E6" stroke-width="0.8"/>
<path fill-rule="evenodd" clip-rule="evenodd" d="M23.9178 41.976L23.9553 42.0445L24.0238 42.082L23.9553 42.1194L23.9178 42.188L23.8803 42.1194L23.8118 42.082L23.8803 42.0445L23.9178 41.976Z" fill="#B0EFFF" stroke="#E6E6E6" stroke-width="0.8"/>
</svg>
